<svg width="41" height="48" viewBox="0 0 41 48" fill="none" xmlns="http://www.w3.org/2000/svg">
<path fill-rule="evenodd" clip-rule="evenodd" d="M34.1451 46.0671C31.5082 48.5938 28.5988 48.1999 25.8257 47.0086C22.8775 45.7932 20.1822 45.7164 17.0685 47.0086C13.1911 48.661 11.1331 48.1807 8.79786 46.0671C-4.38658 32.6649 -2.44053 12.2493 12.544 11.4807C16.1782 11.6729 18.7227 13.4646 20.8633 13.6136C24.0451 12.9747 27.0907 11.1445 30.4962 11.3847C34.5878 11.7113 37.6479 13.3061 39.6913 16.1739C31.2747 21.1697 33.2693 32.122 41 35.1964C39.4529 39.2074 37.4679 43.1704 34.1402 46.1007L34.1451 46.0671ZM20.5714 11.3366C20.1773 5.38009 25.0668 0.480366 30.6908 0C31.4644 6.86923 24.3662 12.0091 20.5714 11.3366Z" fill="#03314B"/>
</svg>
