<svg width="170" height="192" viewBox="0 0 170 192" fill="none" xmlns="http://www.w3.org/2000/svg">
<g filter="url(#filter0_d_2_1255)">
<g clip-path="url(#clip0_2_1255)">
<path d="M165.596 40.0615V127.077C165.596 130.631 164.65 133.969 162.968 136.877C159.708 142.477 153.716 146.246 146.882 146.246H30.3895C11.1493 146.246 3.26403 120.831 19.1398 109.523L52.6786 85.6154L75.3883 69.4615L111.766 43.5077L137.524 24.9846C149.405 16.5846 165.596 25.2 165.596 40.0615Z" fill="#0400D4"/>
<path opacity="0.24" d="M165.596 40.0615V127.077C165.596 130.631 164.65 133.969 162.968 136.877C159.708 142.477 153.716 146.246 146.882 146.246H82.1171C64.454 132.138 52.994 110.277 52.6786 85.6154L75.3883 69.4615L111.766 43.5077L137.524 24.9846C149.405 16.5846 165.596 25.2 165.596 40.0615Z" fill="#E9E9FB"/>
<path opacity="0.24" d="M165.596 40.0615V120.508C134.37 110.815 111.661 81.0923 111.661 45.9846C111.661 45.1231 111.661 44.3692 111.661 43.5077L137.524 24.9846C149.405 16.5846 165.596 25.2 165.596 40.0615Z" fill="#F61C7A"/>
<path d="M69.7109 108.554H50.1553C48.4731 108.554 47.1063 109.954 47.1063 111.677V147.215H72.865V111.677C72.865 109.954 71.3931 108.554 69.7109 108.554Z" fill="white"/>
<path d="M105.878 96.6H86.3224C84.6402 96.6 83.2734 98 83.2734 99.7231V147.215H109.032V99.8308C108.927 98 107.56 96.6 105.878 96.6Z" fill="white"/>
<path d="M141.94 83.6769H122.385C120.702 83.6769 119.336 85.0769 119.336 86.8V147.215H145.094V86.9077C144.989 85.0769 143.622 83.6769 141.94 83.6769Z" fill="white"/>
<path d="M128.693 1.72308L104.301 0L110.714 9.15385C101.252 17.5538 4 97.1385 4 97.1385L116.497 17.5538L122.805 26.6L128.693 1.72308Z" fill="#0400D4"/>
</g>
<rect x="4.5" y="0.5" width="160.596" height="146.215" stroke="black"/>
<path d="M11.7292 176.439C11.2987 176.439 10.9593 176.323 10.7109 176.091C10.4626 175.859 10.3384 175.537 10.3384 175.123V166.083C10.3384 163.731 11.0089 161.894 12.35 160.569C13.6912 159.245 15.5538 158.582 17.938 158.582C19.4944 158.582 20.8438 158.889 21.9862 159.501C23.1286 160.097 23.9978 160.958 24.5939 162.084C25.2065 163.21 25.5128 164.543 25.5128 166.083V175.123C25.5128 175.537 25.3886 175.859 25.1403 176.091C24.8919 176.323 24.5525 176.439 24.122 176.439C23.6915 176.439 23.3439 176.323 23.0789 176.091C22.814 175.843 22.6816 175.52 22.6816 175.123V170.553H13.1696V175.123C13.1696 175.52 13.0372 175.843 12.7722 176.091C12.5073 176.323 12.1596 176.439 11.7292 176.439ZM22.6816 168.343V166.008C22.6816 164.319 22.2759 163.036 21.4646 162.159C20.6699 161.281 19.4944 160.842 17.938 160.842C16.3651 160.842 15.173 161.281 14.3617 162.159C13.567 163.02 13.1696 164.303 13.1696 166.008V168.343H22.6816ZM29.698 176.464C29.2675 176.464 28.9281 176.348 28.6797 176.116C28.4314 175.884 28.3072 175.561 28.3072 175.147V165.114C28.3072 164.7 28.4231 164.377 28.6549 164.145C28.9032 163.914 29.2344 163.798 29.6483 163.798C30.0788 163.798 30.4099 163.914 30.6417 164.145C30.8901 164.377 31.0142 164.7 31.0142 165.114V166.157C32.0904 164.75 33.5061 164.046 35.2611 164.046H35.8323C36.2793 164.046 36.627 164.145 36.8754 164.344C37.1403 164.543 37.2728 164.816 37.2728 165.164C37.2728 165.528 37.1403 165.809 36.8754 166.008C36.627 166.19 36.2793 166.281 35.8323 166.281H35.0376C33.8289 166.281 32.8686 166.654 32.1567 167.399C31.4447 168.127 31.0887 169.129 31.0887 170.404V175.147C31.0887 175.545 30.9563 175.868 30.6914 176.116C30.443 176.348 30.1119 176.464 29.698 176.464ZM40.5392 176.464C40.1087 176.464 39.7693 176.348 39.5209 176.116C39.2726 175.884 39.1484 175.561 39.1484 175.147V165.114C39.1484 164.7 39.2643 164.377 39.4961 164.145C39.7445 163.914 40.0756 163.798 40.4895 163.798C40.92 163.798 41.2511 163.914 41.4829 164.145C41.7313 164.377 41.8555 164.7 41.8555 165.114V166.157C42.9317 164.75 44.3473 164.046 46.1023 164.046H46.6735C47.1206 164.046 47.4683 164.145 47.7166 164.344C47.9815 164.543 48.114 164.816 48.114 165.164C48.114 165.528 47.9815 165.809 47.7166 166.008C47.4683 166.19 47.1206 166.281 46.6735 166.281H45.8788C44.6701 166.281 43.7098 166.654 42.9979 167.399C42.2859 168.127 41.93 169.129 41.93 170.404V175.147C41.93 175.545 41.7975 175.868 41.5326 176.116C41.2843 176.348 40.9531 176.464 40.5392 176.464ZM55.7037 176.464C54.2633 176.464 52.9967 176.199 51.9039 175.669C50.8112 175.123 49.9667 174.369 49.3707 173.409C48.7912 172.449 48.5015 171.356 48.5015 170.131C48.5015 168.906 48.7912 167.813 49.3707 166.852C49.9667 165.892 50.8112 165.147 51.9039 164.617C52.9967 164.071 54.2633 163.798 55.7037 163.798C57.1442 163.798 58.4108 164.071 59.5035 164.617C60.5963 165.147 61.4324 165.892 62.0119 166.852C62.608 167.813 62.906 168.906 62.906 170.131C62.906 171.356 62.608 172.449 62.0119 173.409C61.4324 174.369 60.5963 175.123 59.5035 175.669C58.4108 176.199 57.1442 176.464 55.7037 176.464ZM55.7037 174.229C57.0448 174.229 58.1128 173.864 58.9075 173.136C59.7022 172.407 60.0996 171.406 60.0996 170.131C60.0996 168.856 59.7022 167.854 58.9075 167.126C58.1128 166.397 57.0448 166.033 55.7037 166.033C54.3461 166.033 53.2699 166.397 52.4751 167.126C51.6969 167.854 51.3079 168.856 51.3079 170.131C51.3079 171.406 51.6969 172.407 52.4751 173.136C53.2699 173.864 54.3461 174.229 55.7037 174.229ZM69.2344 176.464C68.4065 176.464 67.7194 176.215 67.173 175.719C66.6432 175.222 66.2707 174.493 66.0554 173.533L64.2673 165.238C64.2507 165.172 64.2424 165.073 64.2424 164.94C64.2424 164.592 64.3666 164.319 64.615 164.121C64.8633 163.905 65.2027 163.798 65.6332 163.798C66.5935 163.798 67.1316 164.17 67.2475 164.915L68.7377 173.583C68.8204 174.013 68.986 174.229 69.2344 174.229C69.4993 174.229 69.6648 174.022 69.7311 173.608L70.799 166.232C70.9149 165.47 71.2046 164.874 71.6682 164.443C72.1484 164.013 72.7444 163.798 73.4564 163.798C74.1683 163.798 74.7561 164.013 75.2197 164.443C75.6998 164.874 75.9979 165.47 76.1138 166.232L77.1817 173.608C77.2479 174.022 77.4218 174.229 77.7032 174.229C77.935 174.229 78.0923 174.013 78.1751 173.583L79.6652 164.915C79.7977 164.17 80.3358 163.798 81.2795 163.798C81.7266 163.798 82.066 163.897 82.2978 164.096C82.5461 164.294 82.6703 164.568 82.6703 164.915C82.6703 165.064 82.662 165.172 82.6455 165.238L80.8573 173.533C80.6421 174.493 80.2613 175.222 79.7149 175.719C79.1851 176.215 78.5145 176.464 77.7032 176.464C76.8754 176.464 76.2214 176.215 75.7412 175.719C75.2776 175.205 74.9713 174.427 74.8223 173.384L73.8537 166.579C73.8206 166.381 73.771 166.24 73.7047 166.157C73.6551 166.074 73.5723 166.033 73.4564 166.033C73.3405 166.033 73.2494 166.074 73.1832 166.157C73.1335 166.24 73.0921 166.381 73.059 166.579L72.0904 173.384C71.9414 174.427 71.6268 175.205 71.1467 175.719C70.6831 176.215 70.0456 176.464 69.2344 176.464ZM98.9584 176.464C98.528 176.464 98.1803 176.348 97.9154 176.116C97.667 175.884 97.5428 175.561 97.5428 175.147V161.041H92.4516C92.0211 161.041 91.69 160.95 91.4582 160.768C91.2264 160.569 91.1105 160.296 91.1105 159.948C91.1105 159.584 91.2264 159.311 91.4582 159.129C91.69 158.93 92.0211 158.831 92.4516 158.831H105.465C105.896 158.831 106.227 158.93 106.459 159.129C106.707 159.311 106.831 159.584 106.831 159.948C106.831 160.296 106.707 160.569 106.459 160.768C106.227 160.95 105.896 161.041 105.465 161.041H100.374V175.147C100.374 175.545 100.242 175.868 99.9767 176.116C99.7283 176.348 99.3889 176.464 98.9584 176.464ZM107.357 176.464C106.927 176.464 106.587 176.348 106.339 176.116C106.09 175.884 105.966 175.561 105.966 175.147V165.114C105.966 164.7 106.082 164.377 106.314 164.145C106.562 163.914 106.893 163.798 107.307 163.798C107.738 163.798 108.069 163.914 108.301 164.145C108.549 164.377 108.673 164.7 108.673 165.114V166.157C109.75 164.75 111.165 164.046 112.92 164.046H113.491C113.938 164.046 114.286 164.145 114.535 164.344C114.799 164.543 114.932 164.816 114.932 165.164C114.932 165.528 114.799 165.809 114.535 166.008C114.286 166.19 113.938 166.281 113.491 166.281H112.697C111.488 166.281 110.528 166.654 109.816 167.399C109.104 168.127 108.748 169.129 108.748 170.404V175.147C108.748 175.545 108.615 175.868 108.35 176.116C108.102 176.348 107.771 176.464 107.357 176.464ZM120.51 176.464C118.937 176.464 117.679 176.091 116.735 175.346C115.791 174.601 115.319 173.608 115.319 172.366C115.319 171.141 115.816 170.164 116.809 169.435C117.819 168.707 119.177 168.343 120.882 168.343C122.538 168.343 123.83 168.723 124.757 169.485V168.541C124.757 167.713 124.492 167.084 123.962 166.654C123.449 166.207 122.687 165.983 121.677 165.983C120.253 165.983 119.028 166.298 118.002 166.927C117.654 167.126 117.339 167.225 117.058 167.225C116.76 167.225 116.487 167.093 116.238 166.828C116.073 166.645 115.99 166.43 115.99 166.182C115.99 165.785 116.164 165.47 116.511 165.238C117.107 164.791 117.861 164.443 118.771 164.195C119.682 163.93 120.634 163.798 121.628 163.798C123.498 163.798 124.964 164.22 126.023 165.064C127.083 165.909 127.613 167.076 127.613 168.566V175.222C127.613 175.603 127.489 175.909 127.24 176.141C126.992 176.356 126.653 176.464 126.222 176.464C125.792 176.464 125.452 176.356 125.204 176.141C124.972 175.926 124.856 175.628 124.856 175.247V174.775C123.879 175.901 122.431 176.464 120.51 176.464ZM121.106 174.427C122.232 174.427 123.126 174.245 123.788 173.881C124.45 173.5 124.782 172.987 124.782 172.341C124.782 171.712 124.459 171.215 123.813 170.851C123.167 170.487 122.282 170.305 121.156 170.305C120.179 170.305 119.417 170.487 118.871 170.851C118.341 171.215 118.076 171.72 118.076 172.366C118.076 173.028 118.333 173.541 118.846 173.906C119.376 174.253 120.129 174.427 121.106 174.427ZM136.405 176.464C135.097 176.464 133.938 176.215 132.928 175.719C131.934 175.205 131.156 174.477 130.593 173.533C130.047 172.573 129.774 171.447 129.774 170.156C129.774 168.881 130.039 167.763 130.568 166.803C131.115 165.842 131.893 165.106 132.903 164.592C133.913 164.063 135.105 163.798 136.479 163.798C137.555 163.798 138.466 163.98 139.211 164.344C139.956 164.708 140.635 165.238 141.248 165.934L141.273 158.682C141.273 158.268 141.397 157.945 141.645 157.713C141.893 157.481 142.233 157.365 142.663 157.365C143.094 157.365 143.433 157.481 143.682 157.713C143.93 157.945 144.054 158.268 144.054 158.682V175.147C144.054 175.561 143.93 175.884 143.682 176.116C143.433 176.348 143.094 176.464 142.663 176.464C142.249 176.464 141.91 176.348 141.645 176.116C141.397 175.868 141.273 175.545 141.273 175.147V174.278C140.13 175.735 138.508 176.464 136.405 176.464ZM136.802 174.229C138.193 174.229 139.286 173.864 140.08 173.136C140.875 172.407 141.273 171.406 141.273 170.131C141.273 168.856 140.859 167.854 140.031 167.126C139.219 166.397 138.143 166.033 136.802 166.033C135.478 166.033 134.443 166.405 133.698 167.15C132.953 167.879 132.58 168.881 132.58 170.156C132.58 171.464 132.953 172.474 133.698 173.185C134.443 173.881 135.478 174.229 136.802 174.229ZM153.268 176.464C151.845 176.464 150.603 176.215 149.543 175.719C148.5 175.205 147.697 174.477 147.134 173.533C146.588 172.589 146.315 171.472 146.315 170.18C146.315 168.177 146.911 166.612 148.103 165.487C149.295 164.361 150.95 163.798 153.07 163.798C154.378 163.798 155.537 164.005 156.547 164.419C157.557 164.833 158.343 165.412 158.906 166.157C159.469 166.886 159.75 167.722 159.75 168.665C159.75 169.427 159.519 170.015 159.055 170.429C158.591 170.843 157.937 171.05 157.093 171.05H149.046C149.046 172.076 149.411 172.871 150.139 173.434C150.868 173.997 151.911 174.278 153.268 174.278C154.047 174.278 154.734 174.195 155.33 174.03C155.926 173.864 156.48 173.599 156.994 173.235C157.474 172.921 157.838 172.763 158.086 172.763C158.302 172.763 158.525 172.879 158.757 173.111C159.022 173.359 159.154 173.633 159.154 173.931C159.154 174.245 159.014 174.51 158.732 174.725C157.341 175.884 155.52 176.464 153.268 176.464ZM156.249 169.038C156.53 169.038 156.737 168.98 156.87 168.864C157.002 168.748 157.068 168.55 157.068 168.268C157.068 167.589 156.704 167.043 155.975 166.629C155.247 166.198 154.278 165.983 153.07 165.983C151.845 165.983 150.876 166.265 150.164 166.828C149.452 167.374 149.096 168.111 149.096 169.038H156.249Z" fill="#0400D4"/>
<path d="M10.7109 176.091L10.0286 176.822L10.7109 176.091ZM12.35 160.569L11.6473 159.858L11.6473 159.858L12.35 160.569ZM21.9862 159.501L21.5136 160.383L21.5236 160.388L21.9862 159.501ZM24.5939 162.084L23.7101 162.552L23.7155 162.562L24.5939 162.084ZM23.0789 176.091L22.395 176.821L22.4075 176.832L22.4204 176.844L23.0789 176.091ZM22.6816 170.553H23.6816V169.553H22.6816V170.553ZM13.1696 170.553V169.553H12.1696V170.553H13.1696ZM12.7722 176.091L13.4308 176.844L13.4437 176.832L13.4562 176.821L12.7722 176.091ZM22.6816 168.343V169.343H23.6816V168.343H22.6816ZM21.4646 162.159L20.7234 162.83L20.7304 162.837L21.4646 162.159ZM14.3617 162.159L13.6274 161.48L13.6269 161.48L14.3617 162.159ZM13.1696 168.343H12.1696V169.343H13.1696V168.343ZM11.7292 175.439C11.4816 175.439 11.4107 175.376 11.3932 175.36L10.0286 176.822C10.5079 177.27 11.1158 177.439 11.7292 177.439V175.439ZM11.3932 175.36C11.3907 175.358 11.3384 175.325 11.3384 175.123H9.33838C9.33838 175.749 9.53441 176.361 10.0286 176.822L11.3932 175.36ZM11.3384 175.123V166.083H9.33838V175.123H11.3384ZM11.3384 166.083C11.3384 163.929 11.9465 162.373 13.0527 161.281L11.6473 159.858C10.0714 161.414 9.33838 163.534 9.33838 166.083H11.3384ZM13.0527 161.281C14.1604 160.187 15.7437 159.582 17.938 159.582V157.582C15.3639 157.582 13.2219 158.302 11.6473 159.858L13.0527 161.281ZM17.938 159.582C19.3624 159.582 20.543 159.862 21.5136 160.382L22.4588 158.62C21.1445 157.915 19.6264 157.582 17.938 157.582V159.582ZM21.5236 160.388C22.4887 160.891 23.21 161.607 23.7101 162.552L25.4777 161.616C24.7857 160.309 23.7685 159.303 22.4487 158.615L21.5236 160.388ZM23.7155 162.562C24.2337 163.514 24.5128 164.676 24.5128 166.083H26.5128C26.5128 164.409 26.1793 162.905 25.4723 161.606L23.7155 162.562ZM24.5128 166.083V175.123H26.5128V166.083H24.5128ZM24.5128 175.123C24.5128 175.325 24.4605 175.358 24.458 175.36L25.8226 176.822C26.3168 176.361 26.5128 175.749 26.5128 175.123H24.5128ZM24.458 175.36C24.4405 175.376 24.3696 175.439 24.122 175.439V177.439C24.7354 177.439 25.3433 177.27 25.8226 176.822L24.458 175.36ZM24.122 175.439C23.8774 175.439 23.7817 175.377 23.7374 175.339L22.4204 176.844C22.906 177.269 23.5056 177.439 24.122 177.439V175.439ZM23.7629 175.362C23.7198 175.321 23.6816 175.273 23.6816 175.123H21.6816C21.6816 175.767 21.9082 176.364 22.395 176.821L23.7629 175.362ZM23.6816 175.123V170.553H21.6816V175.123H23.6816ZM22.6816 169.553H13.1696V171.553H22.6816V169.553ZM12.1696 170.553V175.123H14.1696V170.553H12.1696ZM12.1696 175.123C12.1696 175.273 12.1314 175.321 12.0883 175.362L13.4562 176.821C13.943 176.364 14.1696 175.767 14.1696 175.123H12.1696ZM12.1137 175.339C12.0695 175.377 11.9737 175.439 11.7292 175.439V177.439C12.3455 177.439 12.9452 177.269 13.4308 176.844L12.1137 175.339ZM23.6816 168.343V166.008H21.6816V168.343H23.6816ZM23.6816 166.008C23.6816 164.172 23.2405 162.606 22.1989 161.48L20.7304 162.837C21.3114 163.466 21.6816 164.467 21.6816 166.008H23.6816ZM22.2058 161.487C21.1666 160.34 19.683 159.842 17.938 159.842V161.842C19.3057 161.842 20.1732 162.222 20.7234 162.83L22.2058 161.487ZM17.938 159.842C16.1789 159.842 14.6829 160.338 13.6274 161.48L15.096 162.837C15.6631 162.224 16.5513 161.842 17.938 161.842V159.842ZM13.6269 161.48C12.5979 162.595 12.1696 164.164 12.1696 166.008H14.1696C14.1696 164.441 14.536 163.444 15.0965 162.837L13.6269 161.48ZM12.1696 166.008V168.343H14.1696V166.008H12.1696ZM13.1696 169.343H22.6816V167.343H13.1696V169.343ZM28.6797 176.116L29.362 175.385L28.6797 176.116ZM28.6549 164.145L27.9726 163.414L27.96 163.426L27.9478 163.438L28.6549 164.145ZM30.6417 164.145L29.9346 164.852L29.9468 164.865L29.9594 164.876L30.6417 164.145ZM31.0142 166.157H30.0142V169.111L31.8086 166.765L31.0142 166.157ZM36.8754 164.344L36.2507 165.125L36.2629 165.135L36.2754 165.144L36.8754 164.344ZM36.8754 166.008L37.4668 166.814L37.4754 166.808L36.8754 166.008ZM32.1567 167.399L32.8719 168.098L32.8797 168.09L32.1567 167.399ZM30.6914 176.116L31.3737 176.847L31.3753 176.846L30.6914 176.116ZM29.698 175.464C29.4504 175.464 29.3795 175.401 29.362 175.385L27.9974 176.847C28.4767 177.294 29.0846 177.464 29.698 177.464V175.464ZM29.362 175.385C29.3595 175.383 29.3072 175.349 29.3072 175.147H27.3072C27.3072 175.773 27.5032 176.386 27.9974 176.847L29.362 175.385ZM29.3072 175.147V165.114H27.3072V175.147H29.3072ZM29.3072 165.114C29.3072 164.999 29.3234 164.932 29.3353 164.899C29.3458 164.87 29.3552 164.859 29.362 164.852L27.9478 163.438C27.4823 163.904 27.3072 164.508 27.3072 165.114H29.3072ZM29.3372 164.876C29.3617 164.854 29.4293 164.798 29.6483 164.798V162.798C29.0394 162.798 28.4447 162.974 27.9726 163.414L29.3372 164.876ZM29.6483 164.798C29.7757 164.798 29.8507 164.815 29.8892 164.828C29.9231 164.84 29.9323 164.85 29.9346 164.852L31.3488 163.438C30.8762 162.966 30.2577 162.798 29.6483 162.798V164.798ZM29.9594 164.876C29.9619 164.879 30.0142 164.912 30.0142 165.114H32.0142C32.0142 164.488 31.8182 163.876 31.324 163.414L29.9594 164.876ZM30.0142 165.114V166.157H32.0142V165.114H30.0142ZM31.8086 166.765C32.6977 165.602 33.821 165.046 35.2611 165.046V163.046C33.1911 163.046 31.4832 163.898 30.2199 165.55L31.8086 166.765ZM35.2611 165.046H35.8323V163.046H35.2611V165.046ZM35.8323 165.046C36.1427 165.046 36.2393 165.116 36.2507 165.125L37.5001 163.563C37.0148 163.175 36.416 163.046 35.8323 163.046V165.046ZM36.2754 165.144C36.2853 165.152 36.287 165.154 36.2843 165.151C36.2831 165.15 36.2813 165.147 36.2792 165.144C36.2772 165.141 36.2753 165.138 36.2736 165.134C36.27 165.127 36.2694 165.123 36.2699 165.125C36.2705 165.128 36.2728 165.14 36.2728 165.164H38.2728C38.2728 164.52 38.0065 163.942 37.4754 163.544L36.2754 165.144ZM36.2728 165.164C36.2728 165.194 36.27 165.212 36.2683 165.22C36.2667 165.228 36.266 165.228 36.2686 165.222C36.2713 165.216 36.2751 165.21 36.2788 165.206C36.2824 165.202 36.2825 165.203 36.2754 165.208L37.4754 166.808C38.0198 166.4 38.2728 165.806 38.2728 165.164H36.2728ZM36.284 165.202C36.269 165.213 36.1589 165.281 35.8323 165.281V167.281C36.3998 167.281 36.9851 167.168 37.4668 166.814L36.284 165.202ZM35.8323 165.281H35.0376V167.281H35.8323V165.281ZM35.0376 165.281C33.6071 165.281 32.367 165.731 31.4337 166.708L32.8797 168.09C33.3702 167.576 34.0508 167.281 35.0376 167.281V165.281ZM31.4415 166.7C30.5037 167.659 30.0887 168.937 30.0887 170.404H32.0887C32.0887 169.321 32.3857 168.595 32.8719 168.098L31.4415 166.7ZM30.0887 170.404V175.147H32.0887V170.404H30.0887ZM30.0887 175.147C30.0887 175.297 30.0505 175.346 30.0074 175.387L31.3753 176.846C31.8621 176.389 32.0887 175.792 32.0887 175.147H30.0887ZM30.0091 175.385C29.9845 175.408 29.9169 175.464 29.698 175.464V177.464C30.3069 177.464 30.9015 177.288 31.3737 176.847L30.0091 175.385ZM39.5209 176.116L40.2033 175.385L39.5209 176.116ZM39.4961 164.145L38.8138 163.414L38.8012 163.426L38.789 163.438L39.4961 164.145ZM41.4829 164.145L40.7758 164.852L40.788 164.865L40.8006 164.876L41.4829 164.145ZM41.8555 166.157H40.8555V169.111L42.6498 166.765L41.8555 166.157ZM47.7166 164.344L47.0919 165.125L47.1041 165.135L47.1166 165.144L47.7166 164.344ZM47.7166 166.008L48.308 166.814L48.3166 166.808L47.7166 166.008ZM42.9979 167.399L43.7131 168.098L43.7209 168.09L42.9979 167.399ZM41.5326 176.116L42.2149 176.847L42.2165 176.846L41.5326 176.116ZM40.5392 175.464C40.2916 175.464 40.2207 175.401 40.2033 175.385L38.8386 176.847C39.3179 177.294 39.9258 177.464 40.5392 177.464V175.464ZM40.2033 175.385C40.2007 175.383 40.1484 175.349 40.1484 175.147H38.1484C38.1484 175.773 38.3444 176.386 38.8386 176.847L40.2033 175.385ZM40.1484 175.147V165.114H38.1484V175.147H40.1484ZM40.1484 165.114C40.1484 164.999 40.1646 164.932 40.1765 164.899C40.187 164.87 40.1965 164.859 40.2032 164.852L38.789 163.438C38.3235 163.904 38.1484 164.508 38.1484 165.114H40.1484ZM40.1784 164.876C40.203 164.854 40.2706 164.798 40.4895 164.798V162.798C39.8806 162.798 39.2859 162.974 38.8138 163.414L40.1784 164.876ZM40.4895 164.798C40.6169 164.798 40.692 164.815 40.7304 164.828C40.7643 164.84 40.7735 164.85 40.7758 164.852L42.19 163.438C41.7174 162.966 41.0989 162.798 40.4895 162.798V164.798ZM40.8006 164.876C40.8031 164.879 40.8555 164.912 40.8555 165.114H42.8555C42.8555 164.488 42.6594 163.876 42.1653 163.414L40.8006 164.876ZM40.8555 165.114V166.157H42.8555V165.114H40.8555ZM42.6498 166.765C43.5389 165.602 44.6622 165.046 46.1023 165.046V163.046C44.0324 163.046 42.3244 163.898 41.0611 165.55L42.6498 166.765ZM46.1023 165.046H46.6735V163.046H46.1023V165.046ZM46.6735 165.046C46.9839 165.046 47.0805 165.116 47.0919 165.125L48.3413 163.563C47.856 163.175 47.2572 163.046 46.6735 163.046V165.046ZM47.1166 165.144C47.1266 165.152 47.1282 165.154 47.1256 165.151C47.1243 165.15 47.1225 165.147 47.1205 165.144C47.1184 165.141 47.1165 165.138 47.1148 165.134C47.1113 165.127 47.1106 165.123 47.1112 165.125C47.1118 165.128 47.114 165.14 47.114 165.164H49.114C49.114 164.52 48.8477 163.942 48.3166 163.544L47.1166 165.144ZM47.114 165.164C47.114 165.194 47.1112 165.212 47.1095 165.22C47.108 165.228 47.1072 165.228 47.1098 165.222C47.1125 165.216 47.1163 165.21 47.1201 165.206C47.1236 165.202 47.1238 165.203 47.1166 165.208L48.3166 166.808C48.861 166.4 49.114 165.806 49.114 165.164H47.114ZM47.1253 165.202C47.1102 165.213 47.0001 165.281 46.6735 165.281V167.281C47.2411 167.281 47.8263 167.168 48.308 166.814L47.1253 165.202ZM46.6735 165.281H45.8788V167.281H46.6735V165.281ZM45.8788 165.281C44.4483 165.281 43.2082 165.731 42.2749 166.708L43.7209 168.09C44.2115 167.576 44.892 167.281 45.8788 167.281V165.281ZM42.2827 166.7C41.345 167.659 40.93 168.937 40.93 170.404H42.93C42.93 169.321 43.2269 168.595 43.7131 168.098L42.2827 166.7ZM40.93 170.404V175.147H42.93V170.404H40.93ZM40.93 175.147C40.93 175.297 40.8917 175.346 40.8487 175.387L42.2165 176.846C42.7033 176.389 42.93 175.792 42.93 175.147H40.93ZM40.8503 175.385C40.8257 175.408 40.7581 175.464 40.5392 175.464V177.464C41.1481 177.464 41.7428 177.288 42.2149 176.847L40.8503 175.385ZM51.9039 175.669L51.4567 176.564L51.4676 176.569L51.9039 175.669ZM49.3707 173.409L48.5144 173.926L48.5211 173.936L49.3707 173.409ZM49.3707 166.852L48.521 166.325L48.5145 166.336L49.3707 166.852ZM51.9039 164.617L52.3402 165.517L52.3511 165.512L51.9039 164.617ZM59.5035 164.617L59.0563 165.512L59.0673 165.517L59.5035 164.617ZM62.0119 166.852L61.1557 167.369L61.1623 167.38L62.0119 166.852ZM62.0119 173.409L61.1622 172.882L61.1557 172.892L62.0119 173.409ZM59.5035 175.669L59.9398 176.569L59.9508 176.563L59.5035 175.669ZM58.9075 173.136L59.5832 173.873L58.9075 173.136ZM52.4751 167.126L51.7994 166.388L51.7917 166.396L52.4751 167.126ZM52.4751 173.136L51.7917 173.866L51.7994 173.873L52.4751 173.136ZM55.7037 175.464C54.3865 175.464 53.2739 175.222 52.3402 174.769L51.4676 176.569C52.7194 177.176 54.14 177.464 55.7037 177.464V175.464ZM52.3511 174.775C51.41 174.304 50.7109 173.672 50.2203 172.882L48.5211 173.936C49.2226 175.067 50.2123 175.941 51.4567 176.563L52.3511 174.775ZM50.2269 172.892C49.7501 172.102 49.5015 171.191 49.5015 170.131H47.5015C47.5015 171.521 47.8323 172.795 48.5145 173.926L50.2269 172.892ZM49.5015 170.131C49.5015 169.07 49.7501 168.159 50.2269 167.369L48.5145 166.336C47.8323 167.466 47.5015 168.741 47.5015 170.131H49.5015ZM50.2203 167.38C50.7091 166.592 51.4045 165.971 52.3402 165.517L51.4676 163.717C50.2178 164.323 49.2244 165.192 48.5211 166.325L50.2203 167.38ZM52.3511 165.512C53.2822 165.046 54.3909 164.798 55.7037 164.798V162.798C54.1357 162.798 52.7111 163.096 51.4567 163.723L52.3511 165.512ZM55.7037 164.798C57.0166 164.798 58.1252 165.046 59.0563 165.512L59.9508 163.723C58.6964 163.096 57.2718 162.798 55.7037 162.798V164.798ZM59.0673 165.517C60.001 165.97 60.6845 166.588 61.1557 167.369L62.8681 166.336C62.1804 165.196 61.1916 164.324 59.9398 163.717L59.0673 165.517ZM61.1623 167.38C61.6518 168.169 61.906 169.076 61.906 170.131H63.906C63.906 168.735 63.5641 167.457 62.8616 166.325L61.1623 167.38ZM61.906 170.131C61.906 171.186 61.6518 172.093 61.1623 172.882L62.8616 173.936C63.5641 172.804 63.906 171.526 63.906 170.131H61.906ZM61.1557 172.892C60.6827 173.676 59.9955 174.305 59.0563 174.775L59.9508 176.563C61.1971 175.94 62.1821 175.062 62.8681 173.926L61.1557 172.892ZM59.0673 174.769C58.1335 175.222 57.0209 175.464 55.7037 175.464V177.464C57.2674 177.464 58.688 177.176 59.9398 176.569L59.0673 174.769ZM55.7037 175.229C57.2313 175.229 58.5619 174.809 59.5832 173.873L58.2318 172.399C57.6636 172.919 56.8584 173.229 55.7037 173.229V175.229ZM59.5832 173.873C60.6224 172.92 61.0996 171.63 61.0996 170.131H59.0996C59.0996 171.181 58.782 171.894 58.2318 172.399L59.5832 173.873ZM61.0996 170.131C61.0996 168.631 60.6224 167.341 59.5832 166.388L58.2318 167.863C58.782 168.367 59.0996 169.08 59.0996 170.131H61.0996ZM59.5832 166.388C58.5619 165.452 57.2313 165.033 55.7037 165.033V167.033C56.8584 167.033 57.6636 167.342 58.2318 167.863L59.5832 166.388ZM55.7037 165.033C54.1633 165.033 52.8229 165.45 51.7994 166.388L53.1508 167.863C53.7168 167.344 54.5288 167.033 55.7037 167.033V165.033ZM51.7917 166.396C50.7724 167.35 50.3079 168.638 50.3079 170.131H52.3079C52.3079 169.074 52.6215 168.358 53.1585 167.856L51.7917 166.396ZM50.3079 170.131C50.3079 171.624 50.7724 172.912 51.7917 173.866L53.1585 172.406C52.6215 171.903 52.3079 171.188 52.3079 170.131H50.3079ZM51.7994 173.873C52.8229 174.811 54.1633 175.229 55.7037 175.229V173.229C54.5288 173.229 53.7168 172.917 53.1508 172.399L51.7994 173.873ZM67.173 175.719L66.4891 176.448L66.4947 176.453L66.5003 176.459L67.173 175.719ZM66.0554 173.533L65.0779 173.744L65.0796 173.752L66.0554 173.533ZM64.2673 165.238L65.2448 165.027L65.2414 165.011L65.2374 164.996L64.2673 165.238ZM64.615 164.121L65.2397 164.901L65.255 164.889L65.2699 164.876L64.615 164.121ZM67.2475 164.915L66.2594 165.069L66.2606 165.077L66.262 165.085L67.2475 164.915ZM68.7377 173.583L67.7521 173.752L67.7538 173.762L67.7556 173.772L68.7377 173.583ZM69.7311 173.608L70.7185 173.766L70.7197 173.758L70.7207 173.751L69.7311 173.608ZM70.799 166.232L69.8103 166.081L69.8093 166.088L70.799 166.232ZM71.6682 164.443L71.0007 163.699L70.9942 163.705L70.9878 163.711L71.6682 164.443ZM75.2197 164.443L74.5392 165.176L74.5456 165.182L74.5521 165.188L75.2197 164.443ZM76.1138 166.232L77.1035 166.088L77.1024 166.081L76.1138 166.232ZM77.1817 173.608L76.192 173.751L76.1931 173.758L76.1942 173.766L77.1817 173.608ZM78.1751 173.583L79.1571 173.772L79.159 173.762L79.1606 173.752L78.1751 173.583ZM79.6652 164.915L78.6806 164.74L78.6797 164.746L79.6652 164.915ZM82.2978 164.096L81.647 164.855L81.6599 164.866L81.6731 164.877L82.2978 164.096ZM82.6455 165.238L81.6753 164.996L81.6714 165.011L81.6679 165.027L82.6455 165.238ZM80.8573 173.533L81.8331 173.752L81.8349 173.744L80.8573 173.533ZM79.7149 175.719L79.0422 174.979L79.0366 174.984L79.031 174.989L79.7149 175.719ZM75.7412 175.719L74.9991 176.389L75.0105 176.402L75.0222 176.414L75.7412 175.719ZM74.8223 173.384L73.8323 173.525L73.8324 173.526L74.8223 173.384ZM73.8537 166.579L74.8438 166.438L74.8421 166.427L74.8401 166.415L73.8537 166.579ZM73.7047 166.157L72.8472 166.672L72.8818 166.729L72.9239 166.782L73.7047 166.157ZM73.1832 166.157L72.4023 165.532L72.3603 165.585L72.3257 165.643L73.1832 166.157ZM73.059 166.579L72.0726 166.415L72.0707 166.427L72.069 166.438L73.059 166.579ZM72.0904 173.384L73.0804 173.526L73.0805 173.525L72.0904 173.384ZM71.1467 175.719L70.4164 175.036L70.4156 175.036L71.1467 175.719ZM69.2344 175.464C68.6228 175.464 68.1853 175.287 67.8457 174.979L66.5003 176.459C67.2535 177.143 68.1902 177.464 69.2344 177.464V175.464ZM67.857 174.989C67.5171 174.67 67.2178 174.147 67.0312 173.314L65.0796 173.752C65.3235 174.84 65.7693 175.773 66.4891 176.448L67.857 174.989ZM67.033 173.322L65.2448 165.027L63.2897 165.449L65.0779 173.744L67.033 173.322ZM65.2374 164.996C65.2426 165.016 65.2447 165.03 65.2453 165.034C65.246 165.039 65.2458 165.038 65.2452 165.031C65.244 165.016 65.2424 164.987 65.2424 164.94H63.2424C63.2424 165.093 63.25 165.292 63.2971 165.481L65.2374 164.996ZM65.2424 164.94C65.2424 164.913 65.2449 164.897 65.2463 164.889C65.2477 164.883 65.2482 164.883 65.2459 164.888C65.2436 164.894 65.2402 164.899 65.2369 164.903C65.2337 164.907 65.2335 164.906 65.2397 164.901L63.9903 163.34C63.4805 163.747 63.2424 164.321 63.2424 164.94H65.2424ZM65.2699 164.876C65.2863 164.862 65.3674 164.798 65.6332 164.798V162.798C65.038 162.798 64.4404 162.949 63.96 163.365L65.2699 164.876ZM65.6332 164.798C66.0003 164.798 66.1474 164.871 66.1878 164.899C66.2038 164.91 66.2111 164.919 66.2184 164.931C66.2272 164.947 66.2466 164.987 66.2594 165.069L68.2356 164.762C68.1426 164.163 67.8555 163.621 67.3262 163.255C66.8285 162.91 66.2265 162.798 65.6332 162.798V164.798ZM66.262 165.085L67.7521 173.752L69.7232 173.413L68.2331 164.746L66.262 165.085ZM67.7556 173.772C67.8104 174.056 67.9124 174.392 68.1313 174.677C68.383 175.004 68.7678 175.229 69.2344 175.229V173.229C69.3222 173.229 69.425 173.249 69.525 173.301C69.6221 173.352 69.6836 173.415 69.7165 173.457C69.7474 173.498 69.754 173.52 69.7486 173.506C69.7435 173.493 69.732 173.458 69.7197 173.394L67.7556 173.772ZM69.2344 175.229C69.6708 175.229 70.0656 175.039 70.3381 174.698C70.5743 174.403 70.6724 174.054 70.7185 173.766L68.7436 173.45C68.7235 173.576 68.7057 173.537 68.7763 173.449C68.8182 173.396 68.8856 173.334 68.9811 173.289C69.0767 173.243 69.1671 173.229 69.2344 173.229V175.229ZM70.7207 173.751L71.7887 166.375L69.8093 166.088L68.7414 173.464L70.7207 173.751ZM71.7876 166.382C71.8771 165.794 72.0843 165.422 72.3487 165.176L70.9878 163.711C70.3249 164.326 69.9526 165.146 69.8104 166.081L71.7876 166.382ZM72.3358 165.188C72.6129 164.94 72.9631 164.798 73.4564 164.798V162.798C72.5257 162.798 71.6839 163.086 71.0007 163.699L72.3358 165.188ZM73.4564 164.798C73.9501 164.798 74.2842 164.939 74.5392 165.176L75.9001 163.711C75.228 163.086 74.3866 162.798 73.4564 162.798V164.798ZM74.5521 165.188C74.8276 165.435 75.0371 165.803 75.1251 166.382L77.1024 166.081C76.9587 165.137 76.5721 164.313 75.8872 163.699L74.5521 165.188ZM75.1241 166.375L76.192 173.751L78.1714 173.464L77.1034 166.088L75.1241 166.375ZM76.1942 173.766C76.2415 174.061 76.3453 174.418 76.596 174.717C76.8818 175.057 77.2811 175.229 77.7032 175.229V173.229C77.7576 173.229 77.8376 173.239 77.9261 173.279C78.0157 173.32 78.0829 173.377 78.1274 173.43C78.2044 173.522 78.1881 173.568 78.1691 173.45L76.1942 173.766ZM77.7032 175.229C78.1894 175.229 78.5678 174.978 78.8024 174.657C79.0068 174.377 79.1036 174.05 79.1571 173.772L77.1931 173.394C77.1802 173.461 77.1681 173.5 77.1617 173.517C77.1549 173.535 77.1597 173.515 77.1877 173.477C77.2173 173.437 77.2777 173.369 77.379 173.313C77.485 173.255 77.5993 173.229 77.7032 173.229V175.229ZM79.1606 173.752L80.6508 165.085L78.6797 164.746L77.1896 173.413L79.1606 173.752ZM80.6498 165.09C80.665 165.005 80.6862 164.961 80.6981 164.941C80.7085 164.924 80.7192 164.912 80.7374 164.899C80.7802 164.87 80.9251 164.798 81.2795 164.798V162.798C80.6902 162.798 80.0942 162.912 79.5989 163.255C79.0762 163.617 78.7856 164.15 78.6807 164.74L80.6498 165.09ZM81.2795 164.798C81.596 164.798 81.6644 164.87 81.647 164.855L82.9486 163.336C82.4675 162.924 81.8571 162.798 81.2795 162.798V164.798ZM81.6731 164.877C81.6793 164.882 81.6791 164.882 81.6759 164.878C81.6726 164.874 81.6692 164.869 81.6668 164.863C81.6645 164.858 81.6651 164.858 81.6664 164.865C81.6679 164.872 81.6703 164.888 81.6703 164.915H83.6703C83.6703 164.296 83.4322 163.723 82.9225 163.315L81.6731 164.877ZM81.6703 164.915C81.6703 164.973 81.6686 165.01 81.667 165.031C81.6663 165.041 81.6658 165.043 81.6664 165.039C81.6668 165.036 81.6692 165.02 81.6753 164.996L83.6156 165.481C83.6641 165.287 83.6703 165.073 83.6703 164.915H81.6703ZM81.6679 165.027L79.8798 173.322L81.8349 173.744L83.623 165.449L81.6679 165.027ZM79.8815 173.314C79.6965 174.14 79.393 174.66 79.0422 174.979L80.3876 176.459C81.1295 175.784 81.5876 174.847 81.8331 173.752L79.8815 173.314ZM79.031 174.989C78.7087 175.291 78.2927 175.464 77.7032 175.464V177.464C78.7364 177.464 79.6614 177.14 80.3988 176.448L79.031 174.989ZM77.7032 175.464C77.0886 175.464 76.7152 175.287 76.4602 175.024L75.0222 176.414C75.7276 177.143 76.6622 177.464 77.7032 177.464V175.464ZM76.4833 175.048C76.2061 174.741 75.9469 174.185 75.8123 173.243L73.8324 173.526C73.9958 174.669 74.3492 175.669 74.9991 176.389L76.4833 175.048ZM75.8123 173.243L74.8438 166.438L72.8637 166.72L73.8323 173.525L75.8123 173.243ZM74.8401 166.415C74.8 166.174 74.7171 165.822 74.4856 165.532L72.9239 166.782C72.8927 166.743 72.8738 166.71 72.8635 166.69C72.8532 166.67 72.8489 166.658 72.8487 166.658C72.8483 166.656 72.8505 166.663 72.8543 166.678C72.858 166.693 72.8625 166.715 72.8673 166.744L74.8401 166.415ZM74.5622 165.643C74.2931 165.194 73.841 165.033 73.4564 165.033V167.033C73.3973 167.033 73.2862 167.022 73.1582 166.958C73.0219 166.89 72.9158 166.786 72.8472 166.672L74.5622 165.643ZM73.4564 165.033C73.0691 165.033 72.6777 165.188 72.4023 165.532L73.9641 166.782C73.905 166.856 73.8211 166.926 73.715 166.974C73.6115 167.021 73.5187 167.033 73.4564 167.033V165.033ZM72.3257 165.643C72.1731 165.897 72.1089 166.197 72.0726 166.415L74.0454 166.744C74.0513 166.708 74.057 166.679 74.0621 166.656C74.0673 166.632 74.0716 166.616 74.0743 166.607C74.0771 166.597 74.0772 166.598 74.0736 166.607C74.0702 166.616 74.0602 166.639 74.0407 166.672L72.3257 165.643ZM72.069 166.438L71.1004 173.243L73.0805 173.525L74.049 166.72L72.069 166.438ZM71.1005 173.243C70.9668 174.178 70.7026 174.73 70.4164 175.036L71.877 176.402C72.5511 175.681 72.916 174.676 73.0804 173.526L71.1005 173.243ZM70.4156 175.036C70.1776 175.291 69.8268 175.464 69.2344 175.464V177.464C70.2645 177.464 71.1886 177.139 71.8777 176.401L70.4156 175.036ZM97.9154 176.116L97.233 176.847L97.2448 176.858L97.2569 176.869L97.9154 176.116ZM97.5428 161.041H98.5428V160.041H97.5428V161.041ZM91.4582 160.768L90.8074 161.527L90.8236 161.541L90.8403 161.554L91.4582 160.768ZM91.4582 159.129L92.076 159.915L92.0928 159.902L92.1089 159.888L91.4582 159.129ZM106.459 159.129L105.808 159.888L105.837 159.913L105.867 159.935L106.459 159.129ZM106.459 160.768L107.077 161.554L107.083 161.549L106.459 160.768ZM100.374 161.041V160.041H99.3741V161.041H100.374ZM99.9767 176.116L100.659 176.847L100.661 176.846L99.9767 176.116ZM98.9584 175.464C98.7139 175.464 98.6181 175.402 98.5739 175.363L97.2569 176.869C97.7424 177.293 98.3421 177.464 98.9584 177.464V175.464ZM98.5977 175.385C98.5952 175.383 98.5428 175.349 98.5428 175.147H96.5428C96.5428 175.773 96.7389 176.386 97.233 176.847L98.5977 175.385ZM98.5428 175.147V161.041H96.5428V175.147H98.5428ZM97.5428 160.041H92.4516V162.041H97.5428V160.041ZM92.4516 160.041C92.1455 160.041 92.0667 159.974 92.076 159.981L90.8403 161.554C91.3133 161.926 91.8966 162.041 92.4516 162.041V160.041ZM92.1089 160.009C92.1061 160.006 92.1078 160.007 92.1111 160.012C92.1145 160.016 92.1169 160.021 92.118 160.023C92.1206 160.03 92.1105 160.011 92.1105 159.948H90.1105C90.1105 160.543 90.3217 161.111 90.8074 161.527L92.1089 160.009ZM92.1105 159.948C92.1105 159.871 92.1229 159.849 92.118 159.861C92.1154 159.867 92.11 159.877 92.1008 159.889C92.0916 159.901 92.0824 159.91 92.076 159.915L90.8403 158.342C90.3107 158.758 90.1105 159.357 90.1105 159.948H92.1105ZM92.1089 159.888C92.0975 159.898 92.1629 159.831 92.4516 159.831V157.831C91.8793 157.831 91.2824 157.962 90.8074 158.369L92.1089 159.888ZM92.4516 159.831H105.465V157.831H92.4516V159.831ZM105.465 159.831C105.754 159.831 105.819 159.898 105.808 159.888L107.11 158.369C106.634 157.962 106.038 157.831 105.465 157.831V159.831ZM105.867 159.935C105.865 159.933 105.857 159.927 105.848 159.916C105.838 159.904 105.832 159.893 105.828 159.884C105.82 159.866 105.831 159.879 105.831 159.948H107.831C107.831 159.331 107.604 158.729 107.05 158.322L105.867 159.935ZM105.831 159.948C105.831 159.976 105.829 159.992 105.827 159.999C105.826 160.006 105.825 160.005 105.828 160C105.83 159.995 105.834 159.989 105.837 159.985C105.84 159.981 105.84 159.982 105.834 159.987L107.083 161.549C107.593 161.141 107.831 160.567 107.831 159.948H105.831ZM105.841 159.981C105.85 159.974 105.771 160.041 105.465 160.041V162.041C106.02 162.041 106.604 161.926 107.077 161.554L105.841 159.981ZM105.465 160.041H100.374V162.041H105.465V160.041ZM99.3741 161.041V175.147H101.374V161.041H99.3741ZM99.3741 175.147C99.3741 175.297 99.3358 175.346 99.2928 175.387L100.661 176.846C101.147 176.389 101.374 175.792 101.374 175.147H99.3741ZM99.2944 175.385C99.2769 175.401 99.206 175.464 98.9584 175.464V177.464C99.5718 177.464 100.18 177.294 100.659 176.847L99.2944 175.385ZM106.339 176.116L107.021 175.385L106.339 176.116ZM106.314 164.145L105.632 163.414L105.619 163.426L105.607 163.438L106.314 164.145ZM108.301 164.145L107.594 164.852L107.606 164.865L107.618 164.876L108.301 164.145ZM108.673 166.157H107.673V169.111L109.468 166.765L108.673 166.157ZM114.535 164.344L113.91 165.125L113.922 165.135L113.935 165.144L114.535 164.344ZM114.535 166.008L115.126 166.814L115.135 166.808L114.535 166.008ZM109.816 167.399L110.531 168.098L110.539 168.09L109.816 167.399ZM108.35 176.116L109.033 176.847L109.034 176.846L108.35 176.116ZM107.357 175.464C107.109 175.464 107.039 175.401 107.021 175.385L105.657 176.847C106.136 177.294 106.744 177.464 107.357 177.464V175.464ZM107.021 175.385C107.019 175.383 106.966 175.349 106.966 175.147H104.966C104.966 175.773 105.162 176.386 105.657 176.847L107.021 175.385ZM106.966 175.147V165.114H104.966V175.147H106.966ZM106.966 165.114C106.966 164.999 106.982 164.932 106.994 164.899C107.005 164.87 107.014 164.859 107.021 164.852L105.607 163.438C105.141 163.904 104.966 164.508 104.966 165.114H106.966ZM106.996 164.876C107.021 164.854 107.088 164.798 107.307 164.798V162.798C106.699 162.798 106.104 162.974 105.632 163.414L106.996 164.876ZM107.307 164.798C107.435 164.798 107.51 164.815 107.548 164.828C107.582 164.84 107.591 164.85 107.594 164.852L109.008 163.438C108.535 162.966 107.917 162.798 107.307 162.798V164.798ZM107.618 164.876C107.621 164.879 107.673 164.912 107.673 165.114H109.673C109.673 164.488 109.477 163.876 108.983 163.414L107.618 164.876ZM107.673 165.114V166.157H109.673V165.114H107.673ZM109.468 166.765C110.357 165.602 111.48 165.046 112.92 165.046V163.046C110.85 163.046 109.142 163.898 107.879 165.55L109.468 166.765ZM112.92 165.046H113.491V163.046H112.92V165.046ZM113.491 165.046C113.802 165.046 113.898 165.116 113.91 165.125L115.159 163.563C114.674 163.175 114.075 163.046 113.491 163.046V165.046ZM113.935 165.144C113.944 165.152 113.946 165.154 113.943 165.151C113.942 165.15 113.94 165.147 113.938 165.144C113.936 165.141 113.934 165.138 113.933 165.134C113.929 165.127 113.929 165.123 113.929 165.125C113.93 165.128 113.932 165.14 113.932 165.164H115.932C115.932 164.52 115.666 163.942 115.135 163.544L113.935 165.144ZM113.932 165.164C113.932 165.194 113.929 165.212 113.927 165.22C113.926 165.228 113.925 165.228 113.928 165.222C113.93 165.216 113.934 165.21 113.938 165.206C113.942 165.202 113.942 165.203 113.935 165.208L115.135 166.808C115.679 166.4 115.932 165.806 115.932 165.164H113.932ZM113.943 165.202C113.928 165.213 113.818 165.281 113.491 165.281V167.281C114.059 167.281 114.644 167.168 115.126 166.814L113.943 165.202ZM113.491 165.281H112.697V167.281H113.491V165.281ZM112.697 165.281C111.266 165.281 110.026 165.731 109.093 166.708L110.539 168.09C111.029 167.576 111.71 167.281 112.697 167.281V165.281ZM109.101 166.7C108.163 167.659 107.748 168.937 107.748 170.404H109.748C109.748 169.321 110.045 168.595 110.531 168.098L109.101 166.7ZM107.748 170.404V175.147H109.748V170.404H107.748ZM107.748 175.147C107.748 175.297 107.71 175.346 107.667 175.387L109.034 176.846C109.521 176.389 109.748 175.792 109.748 175.147H107.748ZM107.668 175.385C107.644 175.408 107.576 175.464 107.357 175.464V177.464C107.966 177.464 108.561 177.288 109.033 176.847L107.668 175.385ZM116.735 175.346L116.115 176.131L116.735 175.346ZM116.809 169.435L116.224 168.624L116.218 168.629L116.809 169.435ZM124.757 169.485L124.122 170.258L125.757 171.601V169.485H124.757ZM123.962 166.654L123.305 167.408L123.318 167.419L123.331 167.43L123.962 166.654ZM118.002 166.927L118.498 167.795L118.511 167.788L118.524 167.78L118.002 166.927ZM116.238 166.828L115.498 167.5L115.503 167.506L115.509 167.512L116.238 166.828ZM116.511 165.238L117.066 166.07L117.089 166.055L117.111 166.038L116.511 165.238ZM118.771 164.195L119.035 165.16L119.043 165.158L119.051 165.155L118.771 164.195ZM126.023 165.064L126.647 164.282L126.023 165.064ZM127.24 176.141L127.895 176.897L127.909 176.885L127.923 176.872L127.24 176.141ZM125.204 176.141L124.523 176.874L124.536 176.885L124.549 176.897L125.204 176.141ZM124.856 174.775H125.856V172.097L124.101 174.12L124.856 174.775ZM123.788 173.881L124.27 174.757L124.278 174.753L124.287 174.748L123.788 173.881ZM118.871 170.851L118.316 170.019L118.31 170.023L118.304 170.027L118.871 170.851ZM118.846 173.906L118.267 174.721L118.282 174.732L118.297 174.742L118.846 173.906ZM120.51 175.464C119.092 175.464 118.074 175.129 117.355 174.561L116.115 176.131C117.283 177.053 118.782 177.464 120.51 177.464V175.464ZM117.355 174.561C116.66 174.013 116.319 173.313 116.319 172.366H114.319C114.319 173.902 114.922 175.189 116.115 176.131L117.355 174.561ZM116.319 172.366C116.319 171.461 116.663 170.783 117.401 170.242L116.218 168.629C114.969 169.545 114.319 170.82 114.319 172.366H116.319ZM117.394 170.246C118.181 169.679 119.311 169.343 120.882 169.343V167.343C119.043 167.343 117.457 167.735 116.224 168.624L117.394 170.246ZM120.882 169.343C122.394 169.343 123.431 169.69 124.122 170.258L125.392 168.712C124.228 167.757 122.682 167.343 120.882 167.343V169.343ZM125.757 169.485V168.541H123.757V169.485H125.757ZM125.757 168.541C125.757 167.483 125.406 166.539 124.593 165.878L123.331 167.43C123.578 167.63 123.757 167.944 123.757 168.541H125.757ZM124.619 165.9C123.853 165.233 122.815 164.983 121.677 164.983V166.983C122.559 166.983 123.045 167.181 123.305 167.408L124.619 165.9ZM121.677 164.983C120.103 164.983 118.69 165.332 117.479 166.074L118.524 167.78C119.367 167.263 120.404 166.983 121.677 166.983V164.983ZM117.505 166.059C117.249 166.205 117.107 166.225 117.058 166.225V168.225C117.572 168.225 118.059 168.046 118.498 167.795L117.505 166.059ZM117.058 166.225C117.058 166.225 117.058 166.225 117.06 166.225C117.061 166.225 117.063 166.226 117.065 166.226C117.069 166.227 117.069 166.228 117.066 166.226C117.059 166.222 117.024 166.204 116.968 166.144L115.509 167.512C115.902 167.931 116.425 168.225 117.058 168.225V166.225ZM116.978 166.155C116.975 166.151 116.975 166.151 116.978 166.155C116.98 166.158 116.983 166.164 116.985 166.171C116.988 166.177 116.989 166.183 116.99 166.186C116.99 166.189 116.99 166.188 116.99 166.182H114.99C114.99 166.677 115.164 167.132 115.498 167.5L116.978 166.155ZM116.99 166.182C116.99 166.156 116.993 166.142 116.994 166.137C116.995 166.134 116.995 166.133 116.995 166.132C116.995 166.132 116.995 166.132 116.996 166.132C116.996 166.131 116.996 166.13 116.998 166.128C116.999 166.126 117.002 166.123 117.007 166.118C117.016 166.108 117.034 166.092 117.066 166.07L115.957 164.406C115.348 164.812 114.99 165.43 114.99 166.182H116.99ZM117.111 166.038C117.584 165.684 118.214 165.383 119.035 165.16L118.508 163.23C117.507 163.503 116.631 163.898 115.911 164.438L117.111 166.038ZM119.051 165.155C119.866 164.918 120.724 164.798 121.628 164.798V162.798C120.544 162.798 119.498 162.942 118.492 163.235L119.051 165.155ZM121.628 164.798C123.357 164.798 124.574 165.188 125.4 165.846L126.647 164.282C125.353 163.251 123.64 162.798 121.628 162.798V164.798ZM125.4 165.846C126.196 166.48 126.613 167.346 126.613 168.566H128.613C128.613 166.806 127.97 165.337 126.647 164.282L125.4 165.846ZM126.613 168.566V175.222H128.613V168.566H126.613ZM126.613 175.222C126.613 175.363 126.578 175.391 126.558 175.41L127.923 176.872C128.399 176.427 128.613 175.843 128.613 175.222H126.613ZM126.585 175.385C126.569 175.399 126.488 175.464 126.222 175.464V177.464C126.817 177.464 127.415 177.313 127.895 176.897L126.585 175.385ZM126.222 175.464C125.956 175.464 125.875 175.399 125.859 175.385L124.549 176.897C125.029 177.313 125.627 177.464 126.222 177.464V175.464ZM125.884 175.408C125.88 175.404 125.879 175.403 125.875 175.393C125.87 175.38 125.856 175.336 125.856 175.247H123.856C123.856 175.844 124.047 176.431 124.523 176.874L125.884 175.408ZM125.856 175.247V174.775H123.856V175.247H125.856ZM124.101 174.12C123.366 174.967 122.23 175.464 120.51 175.464V177.464C122.631 177.464 124.393 176.835 125.611 175.43L124.101 174.12ZM121.106 175.427C122.324 175.427 123.405 175.233 124.27 174.757L123.306 173.005C122.847 173.258 122.14 173.427 121.106 173.427V175.427ZM124.287 174.748C125.192 174.227 125.782 173.416 125.782 172.341H123.782C123.782 172.557 123.709 172.773 123.29 173.014L124.287 174.748ZM125.782 172.341C125.782 171.28 125.198 170.484 124.304 169.98L123.322 171.722C123.72 171.947 123.782 172.143 123.782 172.341H125.782ZM124.304 169.98C123.451 169.498 122.372 169.305 121.156 169.305V171.305C122.191 171.305 122.884 171.475 123.322 171.722L124.304 169.98ZM121.156 169.305C120.072 169.305 119.089 169.504 118.316 170.019L119.426 171.683C119.746 171.47 120.286 171.305 121.156 171.305V169.305ZM118.304 170.027C117.502 170.579 117.076 171.393 117.076 172.366H119.076C119.076 172.048 119.18 171.852 119.437 171.675L118.304 170.027ZM117.076 172.366C117.076 173.332 117.474 174.158 118.267 174.721L119.425 173.09C119.192 172.925 119.076 172.724 119.076 172.366H117.076ZM118.297 174.742C119.056 175.24 120.032 175.427 121.106 175.427V173.427C120.226 173.427 119.695 173.267 119.395 173.07L118.297 174.742ZM132.928 175.719L132.469 176.607L132.478 176.612L132.487 176.616L132.928 175.719ZM130.593 173.533L129.724 174.028L129.729 174.037L129.734 174.045L130.593 173.533ZM130.568 166.803L129.699 166.308L129.693 166.32L130.568 166.803ZM132.903 164.592L133.356 165.484L133.368 165.478L132.903 164.592ZM139.211 164.344L138.772 165.242L139.211 164.344ZM141.248 165.934L140.497 166.595L142.239 168.571L142.248 165.937L141.248 165.934ZM141.273 158.682L142.273 158.685V158.682H141.273ZM141.645 157.713L140.963 156.982V156.982L141.645 157.713ZM143.682 157.713L144.364 156.982V156.982L143.682 157.713ZM143.682 176.116L144.364 176.847L143.682 176.116ZM141.645 176.116L140.938 176.823L140.962 176.847L140.987 176.869L141.645 176.116ZM141.273 174.278H142.273V171.382L140.486 173.661L141.273 174.278ZM140.08 173.136L139.405 172.399L140.08 173.136ZM140.031 167.126L139.363 167.87L139.37 167.876L140.031 167.126ZM133.698 167.15L134.397 167.866L134.405 167.858L133.698 167.15ZM133.698 173.185L133.007 173.909L133.015 173.917L133.698 173.185ZM136.405 175.464C135.225 175.464 134.221 175.24 133.369 174.821L132.487 176.616C133.654 177.19 134.969 177.464 136.405 177.464V175.464ZM133.387 174.83C132.556 174.401 131.918 173.801 131.452 173.021L129.734 174.045C130.395 175.152 131.313 176.01 132.469 176.607L133.387 174.83ZM131.462 173.039C131.015 172.253 130.774 171.303 130.774 170.156H128.774C128.774 171.591 129.079 172.893 129.724 174.028L131.462 173.039ZM130.774 170.156C130.774 169.022 131.008 168.076 131.444 167.286L129.693 166.32C129.069 167.45 128.774 168.739 128.774 170.156H130.774ZM131.438 167.297C131.885 166.512 132.516 165.911 133.356 165.484L132.45 163.701C131.27 164.301 130.345 165.173 129.699 166.308L131.438 167.297ZM133.368 165.478C134.208 165.037 135.234 164.798 136.479 164.798V162.798C134.976 162.798 133.618 163.088 132.438 163.707L133.368 165.478ZM136.479 164.798C137.447 164.798 138.198 164.962 138.772 165.242L139.65 163.446C138.734 162.998 137.664 162.798 136.479 162.798V164.798ZM138.772 165.242C139.386 165.542 139.962 165.986 140.497 166.595L141.998 165.273C141.309 164.49 140.527 163.874 139.65 163.446L138.772 165.242ZM142.248 165.937L142.273 158.685L140.273 158.678L140.248 165.93L142.248 165.937ZM142.273 158.682C142.273 158.48 142.325 158.446 142.327 158.444L140.963 156.982C140.469 157.443 140.273 158.056 140.273 158.682H142.273ZM142.327 158.444C142.345 158.428 142.416 158.365 142.663 158.365V156.365C142.05 156.365 141.442 156.535 140.963 156.982L142.327 158.444ZM142.663 158.365C142.911 158.365 142.982 158.428 142.999 158.444L144.364 156.982C143.885 156.535 143.277 156.365 142.663 156.365V158.365ZM142.999 158.444C143.002 158.446 143.054 158.48 143.054 158.682H145.054C145.054 158.056 144.858 157.443 144.364 156.982L142.999 158.444ZM143.054 158.682V175.147H145.054V158.682H143.054ZM143.054 175.147C143.054 175.349 143.002 175.383 142.999 175.385L144.364 176.847C144.858 176.386 145.054 175.773 145.054 175.147H143.054ZM142.999 175.385C142.982 175.401 142.911 175.464 142.663 175.464V177.464C143.277 177.464 143.885 177.294 144.364 176.847L142.999 175.385ZM142.663 175.464C142.447 175.464 142.355 175.408 142.304 175.363L140.987 176.869C141.465 177.287 142.052 177.464 142.663 177.464V175.464ZM142.352 175.409C142.317 175.373 142.273 175.318 142.273 175.147H140.273C140.273 175.772 140.477 176.362 140.938 176.823L142.352 175.409ZM142.273 175.147V174.278H140.273V175.147H142.273ZM140.486 173.661C139.56 174.842 138.248 175.464 136.405 175.464V177.464C138.767 177.464 140.7 176.629 142.059 174.895L140.486 173.661ZM136.802 175.229C138.368 175.229 139.728 174.815 140.756 173.873L139.405 172.399C138.843 172.914 138.018 173.229 136.802 173.229V175.229ZM140.756 173.873C141.795 172.92 142.273 171.63 142.273 170.131H140.273C140.273 171.181 139.955 171.894 139.405 172.399L140.756 173.873ZM142.273 170.131C142.273 168.618 141.77 167.324 140.691 166.375L139.37 167.876C139.948 168.385 140.273 169.094 140.273 170.131H142.273ZM140.699 166.382C139.664 165.453 138.331 165.033 136.802 165.033V167.033C137.956 167.033 138.775 167.342 139.363 167.87L140.699 166.382ZM136.802 165.033C135.284 165.033 133.969 165.465 132.991 166.443L134.405 167.858C134.917 167.345 135.671 167.033 136.802 167.033V165.033ZM132.999 166.435C132.02 167.393 131.58 168.676 131.58 170.156H133.58C133.58 169.086 133.886 168.365 134.397 167.865L132.999 166.435ZM131.58 170.156C131.58 171.659 132.014 172.96 133.007 173.908L134.389 172.462C133.891 171.987 133.58 171.268 133.58 170.156H131.58ZM133.015 173.917C133.996 174.832 135.303 175.229 136.802 175.229V173.229C135.653 173.229 134.89 172.93 134.38 172.454L133.015 173.917ZM149.543 175.719L149.102 176.616L149.11 176.62L149.119 176.624L149.543 175.719ZM147.134 173.533L146.269 174.034L146.275 174.045L147.134 173.533ZM156.547 164.419L156.926 163.493L156.547 164.419ZM158.906 166.157L158.108 166.76L158.115 166.769L158.906 166.157ZM159.055 170.429L158.389 169.683H158.389L159.055 170.429ZM149.046 171.05V170.05H148.046V171.05H149.046ZM150.139 173.434L149.528 174.225L150.139 173.434ZM155.33 174.03L155.597 174.993L155.33 174.03ZM156.994 173.235L156.446 172.399L156.43 172.409L156.415 172.42L156.994 173.235ZM158.757 173.111L158.05 173.818L158.061 173.829L158.073 173.841L158.757 173.111ZM158.732 174.725L158.125 173.931L158.108 173.944L158.092 173.957L158.732 174.725ZM156.87 168.864L157.528 169.617V169.617L156.87 168.864ZM155.975 166.629L155.467 167.49L155.474 167.494L155.481 167.498L155.975 166.629ZM150.164 166.828L150.773 167.621L150.779 167.617L150.784 167.612L150.164 166.828ZM149.096 169.038H148.096V170.038H149.096V169.038ZM153.268 175.464C151.96 175.464 150.869 175.236 149.968 174.813L149.119 176.624C150.337 177.195 151.729 177.464 153.268 177.464V175.464ZM149.985 174.821C149.104 174.388 148.451 173.789 147.993 173.021L146.275 174.045C146.943 175.165 147.896 176.023 149.102 176.616L149.985 174.821ZM147.999 173.032C147.556 172.267 147.314 171.328 147.314 170.18H145.314C145.314 171.615 145.619 172.912 146.269 174.034L147.999 173.032ZM147.314 170.18C147.314 168.387 147.84 167.11 148.789 166.214L147.416 164.759C145.981 166.115 145.314 167.967 145.314 170.18H147.314ZM148.789 166.214C149.746 165.31 151.128 164.798 153.07 164.798V162.798C150.772 162.798 148.843 163.412 147.416 164.759L148.789 166.214ZM153.07 164.798C154.273 164.798 155.299 164.988 156.167 165.344L156.926 163.493C155.774 163.021 154.483 162.798 153.07 162.798V164.798ZM156.167 165.344C157.04 165.701 157.67 166.181 158.108 166.76L159.704 165.554C159.016 164.643 158.073 163.964 156.926 163.493L156.167 165.344ZM158.115 166.769C158.539 167.317 158.75 167.937 158.75 168.665H160.75C160.75 167.506 160.399 166.454 159.697 165.546L158.115 166.769ZM158.75 168.665C158.75 169.212 158.593 169.5 158.389 169.683L159.721 171.175C160.444 170.529 160.75 169.642 160.75 168.665H158.75ZM158.389 169.683C158.166 169.882 157.781 170.05 157.093 170.05V172.05C158.094 172.05 159.017 171.803 159.721 171.175L158.389 169.683ZM157.093 170.05H149.046V172.05H157.093V170.05ZM148.046 171.05C148.046 172.345 148.524 173.449 149.528 174.225L150.751 172.643C150.298 172.293 150.046 171.807 150.046 171.05H148.046ZM149.528 174.225C150.497 174.974 151.79 175.278 153.268 175.278V173.278C152.031 173.278 151.238 173.019 150.751 172.643L149.528 174.225ZM153.268 175.278C154.115 175.278 154.895 175.188 155.597 174.993L155.062 173.066C154.572 173.202 153.978 173.278 153.268 173.278V175.278ZM155.597 174.993C156.307 174.796 156.967 174.481 157.572 174.051L156.415 172.42C155.994 172.718 155.545 172.932 155.062 173.066L155.597 174.993ZM157.542 174.072C157.753 173.933 157.912 173.848 158.023 173.799C158.147 173.746 158.156 173.763 158.086 173.763V171.763C157.769 171.763 157.472 171.859 157.231 171.963C156.978 172.072 156.715 172.223 156.446 172.399L157.542 174.072ZM158.086 173.763C158.05 173.763 158.018 173.758 157.994 173.752C157.971 173.746 157.958 173.739 157.955 173.738C157.953 173.737 157.961 173.741 157.978 173.754C157.995 173.767 158.019 173.787 158.05 173.818L159.464 172.404C159.141 172.081 158.678 171.763 158.086 171.763V173.763ZM158.073 173.841C158.133 173.897 158.152 173.931 158.155 173.938C158.157 173.942 158.156 173.941 158.155 173.938C158.155 173.936 158.155 173.934 158.155 173.933C158.154 173.931 158.154 173.93 158.154 173.931H160.154C160.154 173.297 159.86 172.774 159.441 172.381L158.073 173.841ZM158.154 173.931C158.154 173.934 158.154 173.93 158.156 173.921C158.158 173.912 158.162 173.903 158.166 173.896C158.169 173.889 158.171 173.889 158.166 173.894C158.161 173.9 158.149 173.913 158.125 173.931L159.34 175.52C159.833 175.142 160.154 174.599 160.154 173.931H158.154ZM158.092 173.957C156.921 174.933 155.345 175.464 153.268 175.464V177.464C155.695 177.464 157.761 176.836 159.372 175.493L158.092 173.957ZM156.249 170.038C156.635 170.038 157.131 169.964 157.528 169.617L156.211 168.112C156.279 168.052 156.336 168.034 156.345 168.032C156.35 168.03 156.345 168.032 156.328 168.034C156.311 168.036 156.285 168.038 156.249 168.038V170.038ZM157.528 169.617C157.979 169.222 158.068 168.668 158.068 168.268H156.068C156.068 168.336 156.06 168.343 156.07 168.312C156.082 168.275 156.12 168.191 156.211 168.112L157.528 169.617ZM158.068 168.268C158.068 167.14 157.425 166.302 156.469 165.759L155.481 167.498C155.983 167.783 156.068 168.038 156.068 168.268H158.068ZM156.484 165.768C155.549 165.216 154.385 164.983 153.07 164.983V166.983C154.172 166.983 154.945 167.181 155.467 167.49L156.484 165.768ZM153.07 164.983C151.698 164.983 150.485 165.299 149.544 166.043L150.784 167.612C151.267 167.231 151.991 166.983 153.07 166.983V164.983ZM149.555 166.034C148.587 166.777 148.096 167.812 148.096 169.038H150.096C150.096 168.41 150.317 167.971 150.773 167.621L149.555 166.034ZM149.096 170.038H156.249V168.038H149.096V170.038Z" fill="black"/>
</g>
<defs>
<filter id="filter0_d_2_1255" x="0" y="0" width="169.596" height="199.369" filterUnits="userSpaceOnUse" color-interpolation-filters="sRGB">
<feFlood flood-opacity="0" result="BackgroundImageFix"/>
<feColorMatrix in="SourceAlpha" type="matrix" values="0 0 0 0 0 0 0 0 0 0 0 0 0 0 0 0 0 0 127 0" result="hardAlpha"/>
<feOffset dy="4"/>
<feGaussianBlur stdDeviation="2"/>
<feComposite in2="hardAlpha" operator="out"/>
<feColorMatrix type="matrix" values="0 0 0 0 0 0 0 0 0 0 0 0 0 0 0 0 0 0 0.25 0"/>
<feBlend mode="normal" in2="BackgroundImageFix" result="effect1_dropShadow_2_1255"/>
<feBlend mode="normal" in="SourceGraphic" in2="effect1_dropShadow_2_1255" result="shape"/>
</filter>
<clipPath id="clip0_2_1255">
<rect x="4" width="161.596" height="147.215" fill="white"/>
</clipPath>
</defs>
</svg>
