<svg width="48" height="48" viewBox="0 0 48 48" fill="none" xmlns="http://www.w3.org/2000/svg">
<rect width="48" height="48" rx="24" fill="#908FEC"/>
<mask id="mask0_354_1129" style="mask-type:luminance" maskUnits="userSpaceOnUse" x="0" y="0" width="48" height="48">
<rect width="48" height="48" rx="24" fill="white"/>
</mask>
<g mask="url(#mask0_354_1129)">
<path fill-rule="evenodd" clip-rule="evenodd" d="M31.1026 29.9068C29.9674 30.2678 28.8007 30.5386 27.6235 30.7292C27.5079 30.7493 27.3922 30.7693 27.2766 30.7794C27.0874 30.8094 26.8982 30.8295 26.709 30.8496C26.4778 30.8796 26.236 30.8997 25.9943 30.9198C25.3321 30.9699 24.6804 31 24.0182 31C23.3455 31 22.6728 30.9699 22.0106 30.9097C21.7268 30.8897 21.4535 30.8596 21.1802 30.8195C21.0226 30.7994 20.8649 30.7794 20.7177 30.7593C20.6021 30.7392 20.4865 30.7292 20.3709 30.7091C19.2042 30.5286 18.048 30.2578 16.9233 29.8968C16.0824 29.626 15.4412 29.0543 15.1574 28.3221C14.8736 27.6 14.9787 26.7575 15.4307 26.0354L16.6185 24.1499C16.8707 23.7386 17.102 22.9463 17.102 22.4649V20.5994C17.102 16.9587 20.2027 14 24.0182 14C27.8232 14 30.9239 16.9587 30.9239 20.5994V22.4649C30.9239 22.9463 31.1552 23.7386 31.4179 24.1499L32.6057 26.0354C33.0366 26.7375 33.1207 27.5599 32.8264 28.3221C32.5321 29.0743 31.912 29.646 31.1026 29.9068Z" fill="white"/>
<path fill-rule="evenodd" clip-rule="evenodd" d="M24 20C24.5523 20 25 19.5523 25 19C25 18.4477 24.5523 18 24 18C23.4477 18 23 18.4477 23 19C23 19.5523 23.4477 20 24 20ZM21.7434 33.11C22.3274 33.68 23.1558 34 23.9947 34C25.3752 34 26.554 33.17 27 32.01C26.8195 32.03 26.6496 32.05 26.4796 32.07C26.3362 32.0903 26.188 32.1014 26.0381 32.1127C25.9661 32.1181 25.8937 32.1235 25.8212 32.13C25.2265 32.18 24.6212 32.21 24.0159 32.21C23.4 32.21 22.7841 32.18 22.1788 32.13C21.9239 32.11 21.669 32.08 21.4248 32.05C21.3549 32.0406 21.2874 32.0334 21.2211 32.0263C21.1463 32.0184 21.0732 32.0106 21 32C21.1487 32.41 21.4035 32.81 21.7434 33.11Z" fill="#03314B"/>
</g>
</svg>
