<svg width="48" height="48" viewBox="0 0 48 48" fill="none" xmlns="http://www.w3.org/2000/svg">
<rect width="48" height="48" rx="24" fill="#3500D4"/>
<mask id="mask0_2_3426" style="mask-type:luminance" maskUnits="userSpaceOnUse" x="0" y="0" width="48" height="48">
<rect width="48" height="48" rx="24" fill="white"/>
</mask>
<g mask="url(#mask0_2_3426)">
<path fill-rule="evenodd" clip-rule="evenodd" d="M28.825 28H27C26.4872 28 26.0645 28.386 26.0068 28.8834L26 29C26 29.5128 26.3861 29.9355 26.8834 29.9933L27 30H31L31.0344 29.9994C31.0601 29.9986 31.0859 29.9967 31.1115 29.9939L31 30C31.0538 30 31.1066 29.9958 31.158 29.9876C31.1778 29.9844 31.1978 29.9807 31.2176 29.9762L31.2293 29.9736L31.277 29.9611C31.297 29.9554 31.3169 29.949 31.3367 29.9419C31.4489 29.9019 31.5522 29.842 31.642 29.7667C31.645 29.7642 31.6479 29.7617 31.6508 29.7593L31.6653 29.7466C31.6893 29.7252 31.7122 29.7027 31.734 29.6792L31.6508 29.7593C31.6868 29.7284 31.72 29.6956 31.7505 29.6611C31.7706 29.6382 31.7899 29.6141 31.8081 29.5892C31.8141 29.5813 31.8198 29.5733 31.8253 29.5651C31.841 29.5421 31.8558 29.5185 31.8696 29.4942C31.8764 29.4824 31.8829 29.4704 31.8892 29.4582C31.8993 29.4386 31.9087 29.4186 31.9176 29.3983C31.9243 29.3827 31.9305 29.3672 31.9364 29.3516C31.9459 29.3265 31.9543 29.3009 31.9618 29.2749C31.9643 29.2653 31.9669 29.2559 31.9693 29.2465C31.9801 29.2043 31.9882 29.1609 31.9933 29.1166L32 29V25C32 24.4477 31.5523 24 31 24C30.4872 24 30.0645 24.386 30.0068 24.8834L30 25L30 26.298L25.7593 21.3492C25.4073 20.9385 24.7998 20.8868 24.385 21.2113L24.2929 21.2929L22.067 23.518L17.7682 18.3598C17.4419 17.9682 16.8795 17.8892 16.4612 18.1575L16.3598 18.2318C15.9682 18.5581 15.8892 19.1205 16.1575 19.5388L16.2318 19.6402L21.2318 25.6402C21.5814 26.0597 22.1953 26.1163 22.6141 25.7894L22.7071 25.7071L24.943 23.472L28.825 28Z" fill="white"/>
</g>
</svg>
