<svg width="82" height="34" viewBox="0 0 82 34" fill="none" xmlns="http://www.w3.org/2000/svg">
<path opacity="0.4" fill-rule="evenodd" clip-rule="evenodd" d="M81 1C81 1 75.8707 15 72 15C68.1293 15 68.3887 19 65 19C61.6113 19 62.724 5.25698 61 6.99509C58.0882 9.93068 57.4871 21.0112 55 19C52.5129 16.9888 50.1319 8.9888 49 11C47.8681 13.0112 48.9702 14 45 14C41.0298 14 41.3828 19.6543 40 23C38.6172 26.3457 33.6033 11 31 11C28.3967 11 24.1979 31 22 31C19.8021 31 19.8224 29 18 29C16.1776 29 15.6004 27 13 27C10.3996 27 8.92548 31.9975 7 31.9975C5.07452 31.9975 1 33 1 33H81V1Z" fill="url(#paint0_linear_352_2487)"/>
<path d="M81 1C81 1 75.8707 15 72 15C68.1293 15 68.3887 19 65 19C61.6113 19 62.724 5.25698 61 6.99509C58.0882 9.93068 57.4871 21.0112 55 19C52.5129 16.9888 50.1319 8.9888 49 11C47.8681 13.0112 48.9702 14 45 14C41.0298 14 41.3828 19.6543 40 23C38.6172 26.3457 33.6033 11 31 11C28.3967 11 24.1979 31 22 31C19.8021 31 19.8224 29 18 29C16.1776 29 15.6005 27 13 27C10.3995 27 8.92548 31.9975 7 31.9975C5.07452 31.9975 1 33 1 33" stroke="#1DCC98" stroke-width="2" stroke-linecap="round" stroke-linejoin="round"/>
<defs>
<linearGradient id="paint0_linear_352_2487" x1="80.8297" y1="33" x2="80.8297" y2="1.1362" gradientUnits="userSpaceOnUse">
<stop stop-color="#8EE04E" stop-opacity="0.01"/>
<stop offset="1" stop-color="#8EE04E"/>
</linearGradient>
</defs>
</svg>
