<svg width="82" height="34" viewBox="0 0 82 34" fill="none" xmlns="http://www.w3.org/2000/svg">
<path opacity="0.4" fill-rule="evenodd" clip-rule="evenodd" d="M81 28C81 28 78.1424 26.832 70 23C61.8576 19.168 61 33 61 33C61 33 57.4871 12.9888 55 15C52.5129 17.0112 50.1319 17.0112 49 15C47.8681 12.9888 48.9702 20 45 20C41.0298 20 41.3828 14.3457 40 11C38.6172 7.65431 36.5791 12.177 33 15C29.4209 17.823 26.983 31.9615 26 30C25.017 28.0385 24.1979 19 22 19C19.8021 19 19.8224 5 18 5C16.1776 5 15.6004 18.5374 13 18.5374C10.3996 18.5374 8.92548 2.00251 7 2.00251C5.07452 2.00251 1 1 1 1V33H81V28Z" fill="url(#paint0_linear_354_1371)"/>
<path d="M81 28C81 28 78.1424 26.832 70 23C61.8576 19.168 61 33 61 33C61 33 57.4871 12.9888 55 15C52.5129 17.0112 50.1319 17.0112 49 15C47.8681 12.9888 48.9702 20 45 20C41.0298 20 41.3828 14.3457 40 11C38.6172 7.65431 36.5791 12.177 33 15C29.4209 17.823 26.983 31.9615 26 30C25.017 28.0385 24.1979 19 22 19C19.8021 19 19.8224 5 18 5C16.1776 5 15.6005 18.5374 13 18.5374C10.3995 18.5374 8.92548 2.00251 7 2.00251C5.07452 2.00251 1 1 1 1" stroke="#4CAF50" stroke-width="2" stroke-linecap="round" stroke-linejoin="round"/>
<defs>
<linearGradient id="paint0_linear_354_1371" x1="80.8297" y1="1" x2="80.8297" y2="32.8638" gradientUnits="userSpaceOnUse">
<stop stop-color="#4CAF50"/>
<stop offset="1" stop-color="white"/>
</linearGradient>
</defs>
</svg>
