<svg width="48" height="18" viewBox="0 0 48 18" fill="none" xmlns="http://www.w3.org/2000/svg">
<path d="M5.29476 17.1C3.86456 17.0432 2.69444 16.6518 1.7795 15.925C1.60489 15.7861 1.18881 15.3698 1.04922 15.1942C0.678198 14.7277 0.425951 14.2736 0.257704 13.7699C-0.260006 12.2192 0.00643945 10.1843 1.01983 7.95109C1.8875 6.03918 3.22636 4.14293 5.56219 1.51665C5.90627 1.1302 6.93092 0 6.93753 0C6.94 0 6.88415 0.096733 6.81386 0.214534C6.20652 1.23183 5.68684 2.43011 5.40374 3.4675C4.94897 5.13207 5.00382 6.56056 5.56439 7.66823C5.95108 8.43133 6.61403 9.09231 7.35949 9.4577C8.66455 10.0971 10.5752 10.15 12.9086 9.61248C13.0693 9.57525 21.0299 7.46203 30.599 4.91632C40.1682 2.37036 47.9988 0.288978 48 0.290692C48.0027 0.292896 25.7682 9.80717 14.2259 14.7431C12.398 15.5245 11.9092 15.7219 11.0499 16.0236C8.85313 16.7951 6.88537 17.1632 5.29476 17.1Z" fill="black"/>
</svg>
