<svg width="140" height="140" viewBox="0 0 140 140" fill="none" xmlns="http://www.w3.org/2000/svg">
<circle cx="70" cy="70" r="70" fill="#F3F3FF"/>
<mask id="mask0_2_4473" style="mask-type:luminance" maskUnits="userSpaceOnUse" x="0" y="0" width="140" height="140">
<circle cx="70" cy="70" r="70" fill="white"/>
</mask>
<g mask="url(#mask0_2_4473)">
<path d="M104 32C110.627 32 116 37.3726 116 44V136C116 142.627 110.627 148 104 148H36C29.3726 148 24 142.627 24 136V44C24 37.3726 29.3726 32 36 32H46C46 45.2548 56.7452 56 70 56C79.7968 56 88.2226 50.1301 91.9522 41.7154C94.1901 36.6663 98.4771 32 104 32Z" fill="white"/>
<circle cx="70" cy="32" r="20" fill="#F178B6"/>
<path fill-rule="evenodd" clip-rule="evenodd" d="M77.2 25.4001C77.5314 24.9582 78.1582 24.8687 78.6 25.2001C79.0079 25.5059 79.1155 26.0635 78.8691 26.495L78.8 26.6001L71.3174 36.7997C71.1777 36.986 71.0168 37.1553 70.838 37.3044C69.6141 38.3243 67.8181 38.2045 66.7388 37.0623L66.6128 36.9203L63.2318 32.6402C62.8782 32.216 62.9356 31.5854 63.3598 31.2318C63.7515 30.9055 64.3189 30.9292 64.682 31.2685L64.7682 31.3599L68.1492 35.6399C68.5028 36.0642 69.1333 36.1215 69.5576 35.7679L69.6424 35.6885L69.7174 35.5997L77.2 25.4001Z" fill="#121826"/>
<rect x="38" y="70" width="64" height="24" rx="8" fill="#E8F9DC"/>
<rect x="46" y="79" width="12" height="6" rx="3" fill="#F61C7A"/>
<rect x="62" y="79" width="32" height="6" rx="3" fill="#F178B6"/>
<rect x="38" y="100" width="64" height="24" rx="8" fill="#F4F4F6"/>
<rect x="46" y="109" width="12" height="6" rx="3" fill="#D3D5DA"/>
<rect x="62" y="109" width="32" height="6" rx="3" fill="#D3D5DA"/>
</g>
</svg>
