<svg width="86" height="104" viewBox="0 0 86 104" fill="none" xmlns="http://www.w3.org/2000/svg">
<path d="M3.65655 8.74358C1.43419 9.57506 0 11.5108 0 13.6415V60.9969C0 70.6889 4.57392 79.7572 12.2359 85.2788L39.899 103.104C41.7338 104.286 44.2404 104.286 46.088 103.104L73.7512 85.2788C81.4132 79.7572 85.9871 70.6759 85.9871 60.9969V13.7714C85.9871 11.5758 84.4624 9.60104 82.1367 8.79555C48.543 -2.76723 35.0796 -3.07903 3.65655 8.74358Z" fill="#3500D4"/>
<path d="M82.1497 8.79557C65.7921 3.17009 54.2022 0.20794 43 0.0130615V104C44.0853 104 45.1707 103.701 46.088 103.117L73.7512 85.2918C81.4132 79.7702 85.9871 70.6889 85.9871 61.01V13.7715C86 11.5758 84.4754 9.60107 82.1497 8.79557Z" fill="#F61C7A"/>
<path d="M45.8168 50.9542H39.5244C33.8781 50.9542 29.2913 46.3421 29.2913 40.6647V39.4304C29.2913 33.753 33.8781 29.1409 39.5244 29.1409H45.8168C51.4631 29.1409 56.05 33.753 56.05 39.4304V40.6647C56.05 46.3421 51.4631 50.9542 45.8168 50.9542ZM39.5244 33.2593C36.1392 33.2593 33.3871 36.0266 33.3871 39.4304V40.6647C33.3871 44.0685 36.1392 46.8358 39.5244 46.8358H45.8168C49.202 46.8358 51.9541 44.0685 51.9541 40.6647V39.4304C51.9541 36.0266 49.202 33.2593 45.8168 33.2593H39.5244Z" fill="white"/>
<path d="M48.4784 79.7053H38.5424C29.2395 79.7053 21.7068 72.131 21.7068 62.7769V46.2642C21.7068 44.1725 23.3865 42.4835 25.4667 42.4835H59.4739C62.1356 42.4835 64.2933 44.6532 64.2933 47.3295V63.8032C64.2933 72.5857 57.2128 79.7053 48.4784 79.7053Z" fill="white"/>
<path d="M44.837 58.9132C47.7324 57.8919 49.2562 54.704 48.2406 51.7926C47.2249 48.8813 44.0544 47.3491 41.159 48.3704C38.2637 49.3916 36.7399 52.5796 37.7555 55.4909C38.7712 58.4022 41.9417 59.9344 44.837 58.9132Z" fill="#F178B6"/>
<path d="M43.0002 56.255C43.6592 56.255 44.2018 56.8007 44.2018 57.4632V66.7654C44.2018 67.428 43.6592 67.9737 43.0002 67.9737C42.3413 67.9737 41.7986 67.428 41.7986 66.7654V57.4632C41.7986 56.8007 42.3413 56.255 43.0002 56.255Z" fill="#F178B6"/>
</svg>
