<svg width="327" height="252" viewBox="0 0 327 252" fill="none" xmlns="http://www.w3.org/2000/svg">
<path d="M25.6756 237.452H23.9476V236.06H27.3076V245H25.6756V237.452ZM28.9915 243.764L31.4155 241.232C31.9355 240.688 32.3155 240.276 32.5555 239.996C32.7955 239.708 32.9675 239.46 33.0715 239.252C33.1755 239.036 33.2275 238.816 33.2275 238.592C33.2275 238.224 33.1115 237.932 32.8795 237.716C32.6475 237.492 32.3435 237.38 31.9675 237.38C31.5755 237.38 31.2395 237.492 30.9595 237.716C30.6875 237.932 30.4875 238.252 30.3595 238.676L28.9315 238.232C29.0275 237.768 29.2195 237.364 29.5075 237.02C29.8035 236.668 30.1675 236.396 30.5995 236.204C31.0315 236.012 31.4875 235.916 31.9675 235.916C32.5355 235.916 33.0395 236.024 33.4795 236.24C33.9195 236.448 34.2595 236.744 34.4995 237.128C34.7475 237.504 34.8715 237.936 34.8715 238.424C34.8715 238.904 34.7395 239.372 34.4755 239.828C34.2195 240.276 33.7995 240.804 33.2155 241.412L31.1155 243.62H34.9915V245H28.9915V243.764ZM36.4636 236.06H38.0956V239.96H41.8996V236.06H43.5436V245H41.8996V241.4H38.0956V245H36.4636V236.06Z" fill="#03314B"/>
<path d="M94.2147 237.452H92.4867V236.06H95.8467V245H94.2147V237.452ZM97.8425 236.06H100.759C101.695 236.06 102.515 236.248 103.219 236.624C103.923 237 104.467 237.528 104.851 238.208C105.235 238.88 105.427 239.652 105.427 240.524C105.427 241.388 105.235 242.16 104.851 242.84C104.467 243.52 103.919 244.052 103.207 244.436C102.503 244.812 101.687 245 100.759 245H97.8425V236.06ZM100.795 243.56C101.395 243.56 101.919 243.436 102.367 243.188C102.823 242.94 103.171 242.588 103.411 242.132C103.659 241.668 103.783 241.132 103.783 240.524C103.783 239.916 103.659 239.384 103.411 238.928C103.171 238.472 102.823 238.12 102.367 237.872C101.919 237.624 101.395 237.5 100.795 237.5H99.4745V243.56H100.795Z" fill="#03314B"/>
<rect x="141" y="228" width="46" height="24" rx="12" fill="#F61C7A"/>
<path d="M157.539 237.452H155.811V236.06H159.171V245H157.539V237.452ZM160.435 236.06H162.187L163.843 242.78L165.583 236.06H167.275L169.003 242.78L170.659 236.06H172.411L170.011 245H168.139L166.423 238.568L164.707 245H162.835L160.435 236.06Z" fill="white"/>
<path d="M223.301 237.452H221.573V236.06H224.933V245H223.301V237.452ZM226.928 236.06H228.488L231.464 240.092L234.368 236.06H235.928V245H234.284V238.928L231.524 242.6H231.332L228.56 238.808V245H226.928V236.06Z" fill="#03314B"/>
<path d="M289.695 237.452H287.967V236.06H291.327V245H289.695V237.452ZM295.603 241.04L292.591 236.06H294.451L296.419 239.384L298.387 236.06H300.247L297.247 241.028V245H295.603V241.04Z" fill="#03314B"/>
<path d="M137.775 192.06H138.747L140.871 199.704L143.043 192.06H144.063L146.223 199.68L148.347 192.06H149.319L146.751 201H145.731L143.547 193.344L141.363 201H140.343L137.775 192.06ZM152.827 201.144C152.235 201.144 151.695 201 151.207 200.712C150.719 200.416 150.335 200.012 150.055 199.5C149.775 198.98 149.635 198.4 149.635 197.76C149.635 197.128 149.767 196.56 150.031 196.056C150.303 195.544 150.675 195.144 151.147 194.856C151.619 194.568 152.147 194.424 152.731 194.424C153.323 194.424 153.843 194.568 154.291 194.856C154.739 195.144 155.083 195.524 155.323 195.996C155.571 196.468 155.695 196.964 155.695 197.484C155.695 197.684 155.679 197.876 155.647 198.06H150.583C150.591 198.508 150.699 198.904 150.907 199.248C151.123 199.584 151.399 199.844 151.735 200.028C152.079 200.212 152.443 200.304 152.827 200.304C153.667 200.304 154.323 199.912 154.795 199.128L155.563 199.536C155.355 199.992 155.003 200.376 154.507 200.688C154.019 200.992 153.459 201.144 152.827 201.144ZM154.723 197.22C154.723 196.852 154.631 196.52 154.447 196.224C154.271 195.92 154.031 195.684 153.727 195.516C153.423 195.348 153.091 195.264 152.731 195.264C152.379 195.264 152.047 195.344 151.735 195.504C151.431 195.664 151.175 195.892 150.967 196.188C150.767 196.484 150.647 196.828 150.607 197.22H154.723Z" fill="#6C727F"/>
<path d="M57.1087 192.06H57.9487L61.0687 196.596L64.1887 192.06H65.0287V201H64.0687V193.932L61.0927 198.24H61.0447L58.0687 193.908V201H57.1087V192.06ZM70.02 201.144C69.42 201.144 68.868 201 68.364 200.712C67.868 200.416 67.472 200.012 67.176 199.5C66.888 198.98 66.744 198.404 66.744 197.772C66.744 197.14 66.884 196.572 67.164 196.068C67.452 195.556 67.844 195.156 68.34 194.868C68.844 194.572 69.404 194.424 70.02 194.424C70.636 194.424 71.192 194.568 71.688 194.856C72.184 195.144 72.572 195.544 72.852 196.056C73.14 196.568 73.284 197.14 73.284 197.772C73.284 198.42 73.136 199 72.84 199.512C72.552 200.024 72.156 200.424 71.652 200.712C71.156 201 70.612 201.144 70.02 201.144ZM67.704 197.772C67.704 198.236 67.804 198.656 68.004 199.032C68.212 199.408 68.492 199.704 68.844 199.92C69.204 200.136 69.596 200.244 70.02 200.244C70.444 200.244 70.832 200.136 71.184 199.92C71.536 199.704 71.812 199.408 72.012 199.032C72.22 198.648 72.324 198.228 72.324 197.772C72.324 197.316 72.22 196.904 72.012 196.536C71.812 196.16 71.536 195.864 71.184 195.648C70.832 195.432 70.444 195.324 70.02 195.324C69.596 195.324 69.204 195.432 68.844 195.648C68.492 195.864 68.212 196.16 68.004 196.536C67.804 196.904 67.704 197.316 67.704 197.772Z" fill="#6C727F"/>
<path d="M102.334 192.96H99.8625V192.06H105.742V192.96H103.294V201H102.334V192.96ZM108.595 201.144C108.147 201.144 107.739 201.04 107.371 200.832C107.003 200.616 106.711 200.316 106.495 199.932C106.287 199.548 106.183 199.112 106.183 198.624V194.568H107.083V198.516C107.083 199.036 107.235 199.456 107.539 199.776C107.851 200.088 108.255 200.244 108.751 200.244C109.255 200.244 109.663 200.08 109.975 199.752C110.287 199.416 110.443 198.964 110.443 198.396V194.568H111.343V201H110.443V200.208C110.251 200.504 109.991 200.736 109.663 200.904C109.343 201.064 108.987 201.144 108.595 201.144Z" fill="#6C727F"/>
<path d="M184.094 192.96H181.622V192.06H187.502V192.96H185.054V201H184.094V192.96ZM188.555 191.916H189.455V195.36C189.647 195.064 189.903 194.836 190.223 194.676C190.551 194.508 190.911 194.424 191.303 194.424C191.751 194.424 192.159 194.528 192.527 194.736C192.895 194.944 193.183 195.232 193.391 195.6C193.607 195.968 193.715 196.376 193.715 196.824V201H192.815V197.172C192.815 196.604 192.659 196.156 192.347 195.828C192.035 195.492 191.635 195.324 191.147 195.324C190.659 195.324 190.255 195.492 189.935 195.828C189.615 196.164 189.455 196.612 189.455 197.172V201H188.555V191.916Z" fill="#6C727F"/>
<path d="M224.724 192.06H230.244V192.96H225.684V196.068H229.884V196.968H225.684V201H224.724V192.06ZM231.201 194.568H232.101V195.264C232.269 195.016 232.497 194.824 232.785 194.688C233.073 194.552 233.409 194.484 233.793 194.484H234.201V195.384H233.637C233.165 195.384 232.789 195.532 232.509 195.828C232.237 196.116 232.101 196.52 232.101 197.04V201H231.201V194.568Z" fill="#6C727F"/>
<path d="M266.873 201.144C266.321 201.144 265.809 201.04 265.337 200.832C264.873 200.616 264.477 200.328 264.149 199.968C263.829 199.6 263.601 199.192 263.465 198.744L264.329 198.444C264.457 198.828 264.661 199.16 264.941 199.44C265.229 199.712 265.545 199.92 265.889 200.064C266.241 200.208 266.569 200.28 266.873 200.28C267.233 200.28 267.561 200.204 267.857 200.052C268.153 199.892 268.385 199.696 268.553 199.464C268.721 199.232 268.805 199.008 268.805 198.792C268.805 198.432 268.681 198.104 268.433 197.808C268.185 197.512 267.845 197.316 267.413 197.22L265.805 196.848C265.197 196.712 264.717 196.404 264.365 195.924C264.013 195.444 263.837 194.916 263.837 194.34C263.837 193.876 263.953 193.46 264.185 193.092C264.417 192.724 264.733 192.436 265.133 192.228C265.541 192.02 266.001 191.916 266.513 191.916C267.025 191.916 267.497 192.012 267.929 192.204C268.369 192.396 268.737 192.656 269.033 192.984C269.337 193.304 269.553 193.66 269.681 194.052L268.841 194.388C268.721 194.052 268.529 193.764 268.265 193.524C268.009 193.276 267.725 193.092 267.413 192.972C267.101 192.844 266.805 192.78 266.525 192.78C266.197 192.78 265.901 192.852 265.637 192.996C265.373 193.14 265.165 193.328 265.013 193.56C264.869 193.792 264.797 194.028 264.797 194.268C264.797 194.636 264.933 194.98 265.205 195.3C265.477 195.62 265.813 195.824 266.213 195.912L267.629 196.236C268.317 196.396 268.845 196.696 269.213 197.136C269.581 197.576 269.765 198.1 269.765 198.708C269.765 199.18 269.641 199.604 269.393 199.98C269.153 200.348 268.813 200.636 268.373 200.844C267.933 201.044 267.433 201.144 266.873 201.144ZM273.112 201.144C272.712 201.144 272.348 201.068 272.02 200.916C271.7 200.756 271.448 200.54 271.264 200.268C271.08 199.988 270.988 199.676 270.988 199.332C270.988 198.812 271.156 198.372 271.492 198.012C271.836 197.652 272.352 197.416 273.04 197.304L275.368 196.92V196.584C275.368 196.2 275.228 195.888 274.948 195.648C274.668 195.408 274.304 195.288 273.856 195.288C273.472 195.288 273.132 195.384 272.836 195.576C272.54 195.768 272.316 196.024 272.164 196.344L271.348 195.9C271.532 195.484 271.86 195.136 272.332 194.856C272.812 194.568 273.32 194.424 273.856 194.424C274.32 194.424 274.736 194.516 275.104 194.7C275.472 194.884 275.756 195.14 275.956 195.468C276.164 195.796 276.268 196.168 276.268 196.584V201H275.368V200.076C275.152 200.396 274.844 200.656 274.444 200.856C274.044 201.048 273.6 201.144 273.112 201.144ZM271.948 199.296C271.948 199.584 272.064 199.828 272.296 200.028C272.528 200.228 272.82 200.328 273.172 200.328C273.596 200.328 273.976 200.236 274.312 200.052C274.648 199.868 274.908 199.616 275.092 199.296C275.276 198.968 275.368 198.608 275.368 198.216V197.736L273.256 198.084C272.808 198.156 272.476 198.3 272.26 198.516C272.052 198.724 271.948 198.984 271.948 199.296Z" fill="#6C727F"/>
<path d="M307.75 201.144C307.198 201.144 306.686 201.04 306.214 200.832C305.75 200.616 305.354 200.328 305.026 199.968C304.706 199.6 304.478 199.192 304.342 198.744L305.206 198.444C305.334 198.828 305.538 199.16 305.818 199.44C306.106 199.712 306.422 199.92 306.766 200.064C307.118 200.208 307.446 200.28 307.75 200.28C308.11 200.28 308.438 200.204 308.734 200.052C309.03 199.892 309.262 199.696 309.43 199.464C309.598 199.232 309.682 199.008 309.682 198.792C309.682 198.432 309.558 198.104 309.31 197.808C309.062 197.512 308.722 197.316 308.29 197.22L306.682 196.848C306.074 196.712 305.594 196.404 305.242 195.924C304.89 195.444 304.714 194.916 304.714 194.34C304.714 193.876 304.83 193.46 305.062 193.092C305.294 192.724 305.61 192.436 306.01 192.228C306.418 192.02 306.878 191.916 307.39 191.916C307.902 191.916 308.374 192.012 308.806 192.204C309.246 192.396 309.614 192.656 309.91 192.984C310.214 193.304 310.43 193.66 310.558 194.052L309.718 194.388C309.598 194.052 309.406 193.764 309.142 193.524C308.886 193.276 308.602 193.092 308.29 192.972C307.978 192.844 307.682 192.78 307.402 192.78C307.074 192.78 306.778 192.852 306.514 192.996C306.25 193.14 306.042 193.328 305.89 193.56C305.746 193.792 305.674 194.028 305.674 194.268C305.674 194.636 305.81 194.98 306.082 195.3C306.354 195.62 306.69 195.824 307.09 195.912L308.506 196.236C309.194 196.396 309.722 196.696 310.09 197.136C310.458 197.576 310.642 198.1 310.642 198.708C310.642 199.18 310.518 199.604 310.27 199.98C310.03 200.348 309.69 200.636 309.25 200.844C308.81 201.044 308.31 201.144 307.75 201.144ZM314.643 201.144C314.195 201.144 313.787 201.04 313.419 200.832C313.051 200.616 312.759 200.316 312.543 199.932C312.335 199.548 312.231 199.112 312.231 198.624V194.568H313.131V198.516C313.131 199.036 313.283 199.456 313.587 199.776C313.899 200.088 314.303 200.244 314.799 200.244C315.303 200.244 315.711 200.08 316.023 199.752C316.335 199.416 316.491 198.964 316.491 198.396V194.568H317.391V201H316.491V200.208C316.299 200.504 316.039 200.736 315.711 200.904C315.391 201.064 315.035 201.144 314.643 201.144Z" fill="#6C727F"/>
<path opacity="0.2" d="M48 8H327" stroke="#F61C7A" stroke-linecap="round" stroke-linejoin="round" stroke-dasharray="8"/>
<path d="M3.552 13.108C2.84 13.012 2.224 12.748 1.704 12.316C1.192 11.876 0.844 11.352 0.66 10.744L1.524 10.42C1.7 10.932 1.96 11.344 2.304 11.656C2.648 11.96 3.064 12.156 3.552 12.244V8.908L3 8.74C2.376 8.556 1.892 8.252 1.548 7.828C1.204 7.396 1.032 6.9 1.032 6.34C1.032 5.892 1.14 5.488 1.356 5.128C1.572 4.768 1.872 4.484 2.256 4.276C2.64 4.06 3.072 3.94 3.552 3.916V2.86H4.392V3.976C5 4.088 5.524 4.336 5.964 4.72C6.404 5.096 6.708 5.54 6.876 6.052L6.036 6.388C5.884 5.98 5.668 5.648 5.388 5.392C5.116 5.128 4.784 4.948 4.392 4.852V8.2L4.824 8.332C6.248 8.756 6.96 9.548 6.96 10.708C6.96 11.148 6.852 11.544 6.636 11.896C6.42 12.248 6.116 12.532 5.724 12.748C5.34 12.964 4.896 13.092 4.392 13.132V14.2H3.552V13.108ZM1.992 6.268C1.992 6.644 2.112 6.976 2.352 7.264C2.592 7.552 2.944 7.768 3.408 7.912L3.552 7.96V4.78C3.08 4.812 2.7 4.96 2.412 5.224C2.132 5.488 1.992 5.836 1.992 6.268ZM4.392 12.268C4.88 12.212 5.268 12.056 5.556 11.8C5.852 11.536 6 11.2 6 10.792C6 10.368 5.884 10.036 5.652 9.796C5.42 9.548 5.072 9.356 4.608 9.22L4.392 9.16V12.268ZM9.92981 4.9H8.24981V4.06H10.8898V13H9.92981V4.9ZM16.6149 13.144C15.9189 13.144 15.3029 12.952 14.7669 12.568C14.2309 12.184 13.8149 11.644 13.5189 10.948C13.2229 10.244 13.0749 9.436 13.0749 8.524C13.0749 7.612 13.2229 6.808 13.5189 6.112C13.8149 5.416 14.2269 4.876 14.7549 4.492C15.2909 4.108 15.9069 3.916 16.6029 3.916C17.2989 3.916 17.9109 4.108 18.4389 4.492C18.9749 4.876 19.3909 5.416 19.6869 6.112C19.9829 6.808 20.1309 7.612 20.1309 8.524C20.1309 9.436 19.9829 10.244 19.6869 10.948C19.3989 11.644 18.9869 12.184 18.4509 12.568C17.9229 12.952 17.3109 13.144 16.6149 13.144ZM14.0349 8.524C14.0349 9.26 14.1429 9.908 14.3589 10.468C14.5749 11.028 14.8749 11.464 15.2589 11.776C15.6509 12.088 16.1029 12.244 16.6149 12.244C17.1189 12.244 17.5629 12.092 17.9469 11.788C18.3389 11.476 18.6429 11.04 18.8589 10.48C19.0749 9.912 19.1829 9.26 19.1829 8.524C19.1829 7.788 19.0749 7.14 18.8589 6.58C18.6429 6.02 18.3389 5.588 17.9469 5.284C17.5629 4.972 17.1149 4.816 16.6029 4.816C16.0989 4.816 15.6509 4.972 15.2589 5.284C14.8749 5.588 14.5749 6.02 14.3589 6.58C14.1429 7.14 14.0349 7.788 14.0349 8.524ZM25.404 13.144C24.708 13.144 24.092 12.952 23.556 12.568C23.02 12.184 22.604 11.644 22.308 10.948C22.012 10.244 21.864 9.436 21.864 8.524C21.864 7.612 22.012 6.808 22.308 6.112C22.604 5.416 23.016 4.876 23.544 4.492C24.08 4.108 24.696 3.916 25.392 3.916C26.088 3.916 26.7 4.108 27.228 4.492C27.764 4.876 28.18 5.416 28.476 6.112C28.772 6.808 28.92 7.612 28.92 8.524C28.92 9.436 28.772 10.244 28.476 10.948C28.188 11.644 27.776 12.184 27.24 12.568C26.712 12.952 26.1 13.144 25.404 13.144ZM22.824 8.524C22.824 9.26 22.932 9.908 23.148 10.468C23.364 11.028 23.664 11.464 24.048 11.776C24.44 12.088 24.892 12.244 25.404 12.244C25.908 12.244 26.352 12.092 26.736 11.788C27.128 11.476 27.432 11.04 27.648 10.48C27.864 9.912 27.972 9.26 27.972 8.524C27.972 7.788 27.864 7.14 27.648 6.58C27.432 6.02 27.128 5.588 26.736 5.284C26.352 4.972 25.904 4.816 25.392 4.816C24.888 4.816 24.44 4.972 24.048 5.284C23.664 5.588 23.364 6.02 23.148 6.58C22.932 7.14 22.824 7.788 22.824 8.524ZM30.7131 3.916H31.6131V9.832L34.8411 6.568H36.0051L33.4851 9.148L36.2331 13H35.1531L32.8371 9.808L31.6131 11.068V13H30.7131V3.916Z" fill="#6C727F"/>
<path opacity="0.2" d="M48 48H327" stroke="#F61C7A" stroke-linecap="round" stroke-linejoin="round" stroke-dasharray="8"/>
<path d="M3.552 53.108C2.84 53.012 2.224 52.748 1.704 52.316C1.192 51.876 0.844 51.352 0.66 50.744L1.524 50.42C1.7 50.932 1.96 51.344 2.304 51.656C2.648 51.96 3.064 52.156 3.552 52.244V48.908L3 48.74C2.376 48.556 1.892 48.252 1.548 47.828C1.204 47.396 1.032 46.9 1.032 46.34C1.032 45.892 1.14 45.488 1.356 45.128C1.572 44.768 1.872 44.484 2.256 44.276C2.64 44.06 3.072 43.94 3.552 43.916V42.86H4.392V43.976C5 44.088 5.524 44.336 5.964 44.72C6.404 45.096 6.708 45.54 6.876 46.052L6.036 46.388C5.884 45.98 5.668 45.648 5.388 45.392C5.116 45.128 4.784 44.948 4.392 44.852V48.2L4.824 48.332C6.248 48.756 6.96 49.548 6.96 50.708C6.96 51.148 6.852 51.544 6.636 51.896C6.42 52.248 6.116 52.532 5.724 52.748C5.34 52.964 4.896 53.092 4.392 53.132V54.2H3.552V53.108ZM1.992 46.268C1.992 46.644 2.112 46.976 2.352 47.264C2.592 47.552 2.944 47.768 3.408 47.912L3.552 47.96V44.78C3.08 44.812 2.7 44.96 2.412 45.224C2.132 45.488 1.992 45.836 1.992 46.268ZM4.392 52.268C4.88 52.212 5.268 52.056 5.556 51.8C5.852 51.536 6 51.2 6 50.792C6 50.368 5.884 50.036 5.652 49.796C5.42 49.548 5.072 49.356 4.608 49.22L4.392 49.16V52.268ZM12.7378 44.888H8.27381V44.048H13.7338V44.888L9.71381 53H8.70581L12.7378 44.888ZM17.6631 53.144C16.9671 53.144 16.3471 52.968 15.8031 52.616C15.2671 52.256 14.8871 51.772 14.6631 51.164L15.3951 50.804C15.5791 51.26 15.8791 51.624 16.2951 51.896C16.7111 52.168 17.1671 52.304 17.6631 52.304C18.0471 52.304 18.3951 52.212 18.7071 52.028C19.0191 51.844 19.2631 51.596 19.4391 51.284C19.6151 50.964 19.7031 50.608 19.7031 50.216C19.7031 49.816 19.6111 49.46 19.4271 49.148C19.2511 48.828 19.0071 48.58 18.6951 48.404C18.3911 48.22 18.0511 48.128 17.6751 48.128C17.2911 48.128 16.9311 48.216 16.5951 48.392C16.2591 48.568 16.0151 48.788 15.8631 49.052L15.1071 48.908L15.7791 44.048H20.3031V44.888H16.4511L16.0431 47.78C16.5151 47.436 17.0751 47.264 17.7231 47.264C18.2831 47.264 18.7871 47.396 19.2351 47.66C19.6831 47.924 20.0311 48.284 20.2791 48.74C20.5351 49.188 20.6631 49.68 20.6631 50.216C20.6631 50.768 20.5311 51.268 20.2671 51.716C20.0111 52.156 19.6551 52.504 19.1991 52.76C18.7431 53.016 18.2311 53.144 17.6631 53.144ZM22.3576 43.916H23.2576V49.832L26.4856 46.568H27.6496L25.1296 49.148L27.8776 53H26.7976L24.4816 49.808L23.2576 51.068V53H22.3576V43.916Z" fill="#6C727F"/>
<path opacity="0.2" d="M48 88H327" stroke="#F61C7A" stroke-linecap="round" stroke-linejoin="round" stroke-dasharray="8"/>
<path d="M3.552 93.108C2.84 93.012 2.224 92.748 1.704 92.316C1.192 91.876 0.844 91.352 0.66 90.744L1.524 90.42C1.7 90.932 1.96 91.344 2.304 91.656C2.648 91.96 3.064 92.156 3.552 92.244V88.908L3 88.74C2.376 88.556 1.892 88.252 1.548 87.828C1.204 87.396 1.032 86.9 1.032 86.34C1.032 85.892 1.14 85.488 1.356 85.128C1.572 84.768 1.872 84.484 2.256 84.276C2.64 84.06 3.072 83.94 3.552 83.916V82.86H4.392V83.976C5 84.088 5.524 84.336 5.964 84.72C6.404 85.096 6.708 85.54 6.876 86.052L6.036 86.388C5.884 85.98 5.668 85.648 5.388 85.392C5.116 85.128 4.784 84.948 4.392 84.852V88.2L4.824 88.332C6.248 88.756 6.96 89.548 6.96 90.708C6.96 91.148 6.852 91.544 6.636 91.896C6.42 92.248 6.116 92.532 5.724 92.748C5.34 92.964 4.896 93.092 4.392 93.132V94.2H3.552V93.108ZM1.992 86.268C1.992 86.644 2.112 86.976 2.352 87.264C2.592 87.552 2.944 87.768 3.408 87.912L3.552 87.96V84.78C3.08 84.812 2.7 84.96 2.412 85.224C2.132 85.488 1.992 85.836 1.992 86.268ZM4.392 92.268C4.88 92.212 5.268 92.056 5.556 91.8C5.852 91.536 6 91.2 6 90.792C6 90.368 5.884 90.036 5.652 89.796C5.42 89.548 5.072 89.356 4.608 89.22L4.392 89.16V92.268ZM11.3818 93.144C10.6858 93.144 10.0658 92.968 9.52181 92.616C8.98581 92.256 8.60581 91.772 8.38181 91.164L9.11381 90.804C9.29781 91.26 9.59781 91.624 10.0138 91.896C10.4298 92.168 10.8858 92.304 11.3818 92.304C11.7658 92.304 12.1138 92.212 12.4258 92.028C12.7378 91.844 12.9818 91.596 13.1578 91.284C13.3338 90.964 13.4218 90.608 13.4218 90.216C13.4218 89.816 13.3298 89.46 13.1458 89.148C12.9698 88.828 12.7258 88.58 12.4138 88.404C12.1098 88.22 11.7698 88.128 11.3938 88.128C11.0098 88.128 10.6498 88.216 10.3138 88.392C9.97781 88.568 9.73381 88.788 9.58181 89.052L8.82581 88.908L9.49781 84.048H14.0218V84.888H10.1698L9.76181 87.78C10.2338 87.436 10.7938 87.264 11.4418 87.264C12.0018 87.264 12.5058 87.396 12.9538 87.66C13.4018 87.924 13.7498 88.284 13.9978 88.74C14.2538 89.188 14.3818 89.68 14.3818 90.216C14.3818 90.768 14.2498 91.268 13.9858 91.716C13.7298 92.156 13.3738 92.504 12.9178 92.76C12.4618 93.016 11.9498 93.144 11.3818 93.144ZM19.5563 93.144C18.8603 93.144 18.2443 92.952 17.7083 92.568C17.1723 92.184 16.7563 91.644 16.4603 90.948C16.1643 90.244 16.0163 89.436 16.0163 88.524C16.0163 87.612 16.1643 86.808 16.4603 86.112C16.7563 85.416 17.1683 84.876 17.6963 84.492C18.2323 84.108 18.8483 83.916 19.5443 83.916C20.2403 83.916 20.8523 84.108 21.3803 84.492C21.9163 84.876 22.3323 85.416 22.6283 86.112C22.9243 86.808 23.0723 87.612 23.0723 88.524C23.0723 89.436 22.9243 90.244 22.6283 90.948C22.3403 91.644 21.9283 92.184 21.3923 92.568C20.8643 92.952 20.2523 93.144 19.5563 93.144ZM16.9763 88.524C16.9763 89.26 17.0843 89.908 17.3003 90.468C17.5163 91.028 17.8163 91.464 18.2003 91.776C18.5923 92.088 19.0443 92.244 19.5563 92.244C20.0603 92.244 20.5043 92.092 20.8883 91.788C21.2803 91.476 21.5843 91.04 21.8003 90.48C22.0163 89.912 22.1243 89.26 22.1243 88.524C22.1243 87.788 22.0163 87.14 21.8003 86.58C21.5843 86.02 21.2803 85.588 20.8883 85.284C20.5043 84.972 20.0563 84.816 19.5443 84.816C19.0403 84.816 18.5923 84.972 18.2003 85.284C17.8163 85.588 17.5163 86.02 17.3003 86.58C17.0843 87.14 16.9763 87.788 16.9763 88.524ZM24.8654 83.916H25.7654V89.832L28.9934 86.568H30.1574L27.6374 89.148L30.3854 93H29.3054L26.9894 89.808L25.7654 91.068V93H24.8654V83.916Z" fill="#6C727F"/>
<path opacity="0.2" d="M48 128H327" stroke="#F61C7A" stroke-linecap="round" stroke-linejoin="round" stroke-dasharray="8"/>
<path d="M3.552 133.108C2.84 133.012 2.224 132.748 1.704 132.316C1.192 131.876 0.844 131.352 0.66 130.744L1.524 130.42C1.7 130.932 1.96 131.344 2.304 131.656C2.648 131.96 3.064 132.156 3.552 132.244V128.908L3 128.74C2.376 128.556 1.892 128.252 1.548 127.828C1.204 127.396 1.032 126.9 1.032 126.34C1.032 125.892 1.14 125.488 1.356 125.128C1.572 124.768 1.872 124.484 2.256 124.276C2.64 124.06 3.072 123.94 3.552 123.916V122.86H4.392V123.976C5 124.088 5.524 124.336 5.964 124.72C6.404 125.096 6.708 125.54 6.876 126.052L6.036 126.388C5.884 125.98 5.668 125.648 5.388 125.392C5.116 125.128 4.784 124.948 4.392 124.852V128.2L4.824 128.332C6.248 128.756 6.96 129.548 6.96 130.708C6.96 131.148 6.852 131.544 6.636 131.896C6.42 132.248 6.116 132.532 5.724 132.748C5.34 132.964 4.896 133.092 4.392 133.132V134.2H3.552V133.108ZM1.992 126.268C1.992 126.644 2.112 126.976 2.352 127.264C2.592 127.552 2.944 127.768 3.408 127.912L3.552 127.96V124.78C3.08 124.812 2.7 124.96 2.412 125.224C2.132 125.488 1.992 125.836 1.992 126.268ZM4.392 132.268C4.88 132.212 5.268 132.056 5.556 131.8C5.852 131.536 6 131.2 6 130.792C6 130.368 5.884 130.036 5.652 129.796C5.42 129.548 5.072 129.356 4.608 129.22L4.392 129.16V132.268ZM8.45381 132.4L10.9498 129.652L11.3098 129.256C11.7978 128.728 12.1498 128.328 12.3658 128.056C12.5898 127.784 12.7618 127.52 12.8818 127.264C13.0018 127 13.0618 126.72 13.0618 126.424C13.0618 125.896 12.9058 125.488 12.5938 125.2C12.2898 124.904 11.8738 124.756 11.3458 124.756C10.8098 124.756 10.3578 124.908 9.98981 125.212C9.62981 125.516 9.38581 125.94 9.25781 126.484L8.38181 126.292C8.54181 125.564 8.88581 124.988 9.41381 124.564C9.94181 124.132 10.5818 123.916 11.3338 123.916C11.8618 123.916 12.3258 124.024 12.7258 124.24C13.1338 124.448 13.4498 124.744 13.6738 125.128C13.9058 125.512 14.0218 125.944 14.0218 126.424C14.0218 126.896 13.8778 127.356 13.5898 127.804C13.3098 128.252 12.8138 128.872 12.1018 129.664L9.83381 132.16H14.2618V133H8.45381V132.4ZM18.5771 133.144C17.8811 133.144 17.2611 132.968 16.7171 132.616C16.1811 132.256 15.8011 131.772 15.5771 131.164L16.3091 130.804C16.4931 131.26 16.7931 131.624 17.2091 131.896C17.6251 132.168 18.0811 132.304 18.5771 132.304C18.9611 132.304 19.3091 132.212 19.6211 132.028C19.9331 131.844 20.1771 131.596 20.3531 131.284C20.5291 130.964 20.6171 130.608 20.6171 130.216C20.6171 129.816 20.5251 129.46 20.3411 129.148C20.1651 128.828 19.9211 128.58 19.6091 128.404C19.3051 128.22 18.9651 128.128 18.5891 128.128C18.2051 128.128 17.8451 128.216 17.5091 128.392C17.1731 128.568 16.9291 128.788 16.7771 129.052L16.0211 128.908L16.6931 124.048H21.2171V124.888H17.3651L16.9571 127.78C17.4291 127.436 17.9891 127.264 18.6371 127.264C19.1971 127.264 19.7011 127.396 20.1491 127.66C20.5971 127.924 20.9451 128.284 21.1931 128.74C21.4491 129.188 21.5771 129.68 21.5771 130.216C21.5771 130.768 21.4451 131.268 21.1811 131.716C20.9251 132.156 20.5691 132.504 20.1131 132.76C19.6571 133.016 19.1451 133.144 18.5771 133.144ZM23.2717 123.916H24.1717V129.832L27.3997 126.568H28.5637L26.0437 129.148L28.7917 133H27.7117L25.3957 129.808L24.1717 131.068V133H23.2717V123.916Z" fill="#6C727F"/>
<path opacity="0.2" d="M48 168H327" stroke="#F61C7A" stroke-linecap="round" stroke-linejoin="round" stroke-dasharray="8"/>
<path d="M3.552 173.108C2.84 173.012 2.224 172.748 1.704 172.316C1.192 171.876 0.844 171.352 0.66 170.744L1.524 170.42C1.7 170.932 1.96 171.344 2.304 171.656C2.648 171.96 3.064 172.156 3.552 172.244V168.908L3 168.74C2.376 168.556 1.892 168.252 1.548 167.828C1.204 167.396 1.032 166.9 1.032 166.34C1.032 165.892 1.14 165.488 1.356 165.128C1.572 164.768 1.872 164.484 2.256 164.276C2.64 164.06 3.072 163.94 3.552 163.916V162.86H4.392V163.976C5 164.088 5.524 164.336 5.964 164.72C6.404 165.096 6.708 165.54 6.876 166.052L6.036 166.388C5.884 165.98 5.668 165.648 5.388 165.392C5.116 165.128 4.784 164.948 4.392 164.852V168.2L4.824 168.332C6.248 168.756 6.96 169.548 6.96 170.708C6.96 171.148 6.852 171.544 6.636 171.896C6.42 172.248 6.116 172.532 5.724 172.748C5.34 172.964 4.896 173.092 4.392 173.132V174.2H3.552V173.108ZM1.992 166.268C1.992 166.644 2.112 166.976 2.352 167.264C2.592 167.552 2.944 167.768 3.408 167.912L3.552 167.96V164.78C3.08 164.812 2.7 164.96 2.412 165.224C2.132 165.488 1.992 165.836 1.992 166.268ZM4.392 172.268C4.88 172.212 5.268 172.056 5.556 171.8C5.852 171.536 6 171.2 6 170.792C6 170.368 5.884 170.036 5.652 169.796C5.42 169.548 5.072 169.356 4.608 169.22L4.392 169.16V172.268ZM12.1618 173.144C11.4658 173.144 10.8498 172.952 10.3138 172.568C9.77781 172.184 9.36181 171.644 9.06581 170.948C8.76981 170.244 8.62181 169.436 8.62181 168.524C8.62181 167.612 8.76981 166.808 9.06581 166.112C9.36181 165.416 9.77381 164.876 10.3018 164.492C10.8378 164.108 11.4538 163.916 12.1498 163.916C12.8458 163.916 13.4578 164.108 13.9858 164.492C14.5218 164.876 14.9378 165.416 15.2338 166.112C15.5298 166.808 15.6778 167.612 15.6778 168.524C15.6778 169.436 15.5298 170.244 15.2338 170.948C14.9458 171.644 14.5338 172.184 13.9978 172.568C13.4698 172.952 12.8578 173.144 12.1618 173.144ZM9.58181 168.524C9.58181 169.26 9.68981 169.908 9.90581 170.468C10.1218 171.028 10.4218 171.464 10.8058 171.776C11.1978 172.088 11.6498 172.244 12.1618 172.244C12.6658 172.244 13.1098 172.092 13.4938 171.788C13.8858 171.476 14.1898 171.04 14.4058 170.48C14.6218 169.912 14.7298 169.26 14.7298 168.524C14.7298 167.788 14.6218 167.14 14.4058 166.58C14.1898 166.02 13.8858 165.588 13.4938 165.284C13.1098 164.972 12.6618 164.816 12.1498 164.816C11.6458 164.816 11.1978 164.972 10.8058 165.284C10.4218 165.588 10.1218 166.02 9.90581 166.58C9.68981 167.14 9.58181 167.788 9.58181 168.524Z" fill="#6C727F"/>
<path d="M53 100C53 93.3726 58.3726 88 65 88C71.6274 88 77 93.3726 77 100V164C77 166.209 75.2091 168 73 168H57C54.7909 168 53 166.209 53 164V100Z" fill="#908FEC"/>
<path d="M94 148C94 141.373 99.3726 136 106 136C112.627 136 118 141.373 118 148V164C118 166.209 116.209 168 114 168H98C95.7909 168 94 166.209 94 164V148Z" fill="#908FEC"/>
<path d="M135 60C135 53.3726 140.373 48 147 48C153.627 48 159 53.3726 159 60V164C159 166.209 157.209 168 155 168H139C136.791 168 135 166.209 135 164V60Z" fill="#F61C7A"/>
<path d="M176 116C176 109.373 181.373 104 188 104C194.627 104 200 109.373 200 116V164C200 166.209 198.209 168 196 168H180C177.791 168 176 166.209 176 164V116Z" fill="#908FEC"/>
<path d="M217 84C217 77.3726 222.373 72 229 72C235.627 72 241 77.3726 241 84V164C241 166.209 239.209 168 237 168H221C218.791 168 217 166.209 217 164V84Z" fill="#908FEC"/>
<path d="M258 20C258 13.3726 263.373 8 270 8C276.627 8 282 13.3726 282 20V164C282 166.209 280.209 168 278 168H262C259.791 168 258 166.209 258 164V20Z" fill="#908FEC"/>
<path d="M299 108C299 101.373 304.373 96 311 96C317.627 96 323 101.373 323 108V164C323 166.209 321.209 168 319 168H303C300.791 168 299 166.209 299 164V108Z" fill="#908FEC"/>
<g filter="url(#filter0_d_2_3390)">
<rect x="115" y="72" width="64" height="20" rx="10" fill="#03314B"/>
</g>
<path d="M126.593 87.108C125.873 87.004 125.241 86.736 124.697 86.304C124.161 85.864 123.789 85.316 123.581 84.66L124.937 84.072C125.105 84.472 125.329 84.804 125.609 85.068C125.897 85.332 126.225 85.516 126.593 85.62V83.196L126.017 83.016C125.329 82.792 124.805 82.468 124.445 82.044C124.093 81.62 123.917 81.112 123.917 80.52C123.917 80.048 124.029 79.624 124.253 79.248C124.477 78.864 124.789 78.56 125.189 78.336C125.597 78.104 126.065 77.968 126.593 77.928V76.86H127.613V77.976C128.245 78.08 128.793 78.324 129.257 78.708C129.721 79.092 130.057 79.572 130.265 80.148L128.921 80.748C128.793 80.428 128.617 80.16 128.393 79.944C128.169 79.72 127.909 79.556 127.613 79.452V81.888L128.141 82.056C129.565 82.512 130.277 83.336 130.277 84.528C130.277 84.992 130.165 85.412 129.941 85.788C129.725 86.156 129.413 86.46 129.005 86.7C128.605 86.932 128.141 87.072 127.613 87.12V88.2H126.593V87.108ZM125.525 80.448C125.525 80.696 125.605 80.916 125.765 81.108C125.933 81.292 126.177 81.436 126.497 81.54L126.593 81.576V79.368C126.265 79.416 126.005 79.536 125.813 79.728C125.621 79.92 125.525 80.16 125.525 80.448ZM127.613 85.692C127.941 85.636 128.197 85.516 128.381 85.332C128.573 85.14 128.669 84.904 128.669 84.624C128.669 84.36 128.593 84.144 128.441 83.976C128.289 83.808 128.053 83.672 127.733 83.568L127.613 83.532V85.692ZM135.467 79.428H131.255V78.048H137.183V79.428L133.547 87H131.747L135.467 79.428ZM141.407 85.032H137.303V83.664L141.311 78.06H143.015V83.664H144.323V85.032H143.015V87H141.407V85.032ZM141.407 83.664V80.076L138.911 83.664H141.407ZM145.959 88.116C146.511 87.98 146.835 87.608 146.931 87C146.715 87 146.535 86.924 146.391 86.772C146.255 86.62 146.187 86.428 146.187 86.196C146.187 85.964 146.263 85.772 146.415 85.62C146.567 85.46 146.759 85.38 146.991 85.38C147.231 85.38 147.423 85.46 147.567 85.62C147.719 85.772 147.795 86.012 147.795 86.34C147.795 87.044 147.639 87.608 147.327 88.032C147.015 88.464 146.559 88.744 145.959 88.872V88.116ZM152.684 83.724C152.54 83.74 152.424 83.748 152.336 83.748C151.8 83.748 151.316 83.624 150.884 83.376C150.46 83.128 150.124 82.788 149.876 82.356C149.636 81.924 149.516 81.44 149.516 80.904C149.516 80.336 149.648 79.824 149.912 79.368C150.176 78.912 150.544 78.556 151.016 78.3C151.496 78.044 152.032 77.916 152.624 77.916C153.216 77.916 153.748 78.044 154.22 78.3C154.692 78.556 155.06 78.912 155.324 79.368C155.596 79.816 155.732 80.32 155.732 80.88C155.732 81.352 155.652 81.808 155.492 82.248C155.332 82.68 155.032 83.184 154.592 83.76L152.096 87H150.14L152.684 83.724ZM151.148 80.892C151.148 81.332 151.288 81.692 151.568 81.972C151.848 82.244 152.2 82.38 152.624 82.38C153.04 82.38 153.388 82.244 153.668 81.972C153.948 81.692 154.088 81.332 154.088 80.892C154.088 80.452 153.948 80.092 153.668 79.812C153.388 79.524 153.04 79.38 152.624 79.38C152.208 79.38 151.856 79.524 151.568 79.812C151.288 80.092 151.148 80.452 151.148 80.892ZM160.478 87.144C159.774 87.144 159.15 86.952 158.606 86.568C158.07 86.184 157.65 85.644 157.346 84.948C157.05 84.244 156.902 83.436 156.902 82.524C156.902 81.612 157.05 80.808 157.346 80.112C157.65 79.416 158.07 78.876 158.606 78.492C159.142 78.108 159.762 77.916 160.466 77.916C161.178 77.916 161.806 78.108 162.35 78.492C162.894 78.876 163.314 79.416 163.61 80.112C163.914 80.808 164.066 81.612 164.066 82.524C164.066 83.436 163.914 84.244 163.61 84.948C163.314 85.644 162.894 86.184 162.35 86.568C161.814 86.952 161.19 87.144 160.478 87.144ZM158.534 82.524C158.534 83.492 158.706 84.256 159.05 84.816C159.394 85.376 159.87 85.656 160.478 85.656C161.086 85.656 161.562 85.38 161.906 84.828C162.258 84.268 162.434 83.5 162.434 82.524C162.434 81.556 162.258 80.796 161.906 80.244C161.562 79.684 161.082 79.404 160.466 79.404C159.858 79.404 159.382 79.68 159.038 80.232C158.702 80.784 158.534 81.548 158.534 82.524ZM165.279 85.764L167.703 83.232C168.223 82.688 168.603 82.276 168.843 81.996C169.083 81.708 169.255 81.46 169.359 81.252C169.463 81.036 169.515 80.816 169.515 80.592C169.515 80.224 169.399 79.932 169.167 79.716C168.935 79.492 168.631 79.38 168.255 79.38C167.863 79.38 167.527 79.492 167.247 79.716C166.975 79.932 166.775 80.252 166.647 80.676L165.219 80.232C165.315 79.768 165.507 79.364 165.795 79.02C166.091 78.668 166.455 78.396 166.887 78.204C167.319 78.012 167.775 77.916 168.255 77.916C168.823 77.916 169.327 78.024 169.767 78.24C170.207 78.448 170.547 78.744 170.787 79.128C171.035 79.504 171.159 79.936 171.159 80.424C171.159 80.904 171.027 81.372 170.763 81.828C170.507 82.276 170.087 82.804 169.503 83.412L167.403 85.62H171.279V87H165.279V85.764Z" fill="white"/>
<defs>
<filter id="filter0_d_2_3390" x="91" y="56" width="112" height="68" filterUnits="userSpaceOnUse" color-interpolation-filters="sRGB">
<feFlood flood-opacity="0" result="BackgroundImageFix"/>
<feColorMatrix in="SourceAlpha" type="matrix" values="0 0 0 0 0 0 0 0 0 0 0 0 0 0 0 0 0 0 127 0" result="hardAlpha"/>
<feOffset dy="8"/>
<feGaussianBlur stdDeviation="12"/>
<feColorMatrix type="matrix" values="0 0 0 0 0.556863 0 0 0 0 0.898039 0 0 0 0 0.796078 0 0 0 0.4 0"/>
<feBlend mode="normal" in2="BackgroundImageFix" result="effect1_dropShadow_2_3390"/>
<feBlend mode="normal" in="SourceGraphic" in2="effect1_dropShadow_2_3390" result="shape"/>
</filter>
</defs>
</svg>
