<svg width="32" height="32" viewBox="0 0 32 32" fill="none" xmlns="http://www.w3.org/2000/svg">
<rect width="32" height="32" rx="12" fill="#F61C7A"/>
<path fill-rule="evenodd" clip-rule="evenodd" d="M17.7701 6.42945C16.7801 5.85945 15.2301 5.85945 14.2401 6.42945L9.19 9.43945C7.12 10.8395 7 11.0495 7 13.2795V18.7095C7 20.9395 7.12 21.1595 9.23 22.5795L14.2301 25.5695C14.7301 25.8595 15.3701 25.9995 16.0001 25.9995C16.6301 25.9995 17.2701 25.8595 17.7601 25.5695L22.81 22.5595C24.88 21.1595 25 20.9495 25 18.7195V13.2795C25 11.0495 24.88 10.8395 22.77 9.41945C22.77 9.41945 21.6187 8.75361 21.043 8.42069C19.8954 7.75695 17.7701 6.42945 17.7701 6.42945Z" fill="#E8F9DC"/>
<path fill-rule="evenodd" clip-rule="evenodd" d="M16 19C14.3431 19 13 17.6569 13 16C13 14.3431 14.3431 13 16 13C17.6569 13 19 14.3431 19 16C19 17.6569 17.6569 19 16 19Z" fill="#03314B"/>
</svg>
