<svg width="82" height="34" viewBox="0 0 82 34" fill="none" xmlns="http://www.w3.org/2000/svg">
<path opacity="0.4" fill-rule="evenodd" clip-rule="evenodd" d="M1 33C1 33 9.01274 27 12 27C14.9873 27 18.0882 29.9405 21 27.0049C23.9118 24.0693 24.5129 20.9888 27 23C29.4871 25.0112 31.8681 25.0112 33 23C34.1319 20.9888 33.0298 20 37 20C40.9702 20 40.6172 14.3457 42 11C43.3828 7.65431 45.4209 4.17701 49 7C52.5791 9.82299 55.017 7.96154 56 6C56.983 4.03846 57.8021 3 60 3C62.1979 3 62.1776 5 64 5C65.8224 5 66.3996 7 69 7C71.6004 7 73.0745 2.00251 75 2.00251C76.9255 2.00251 81 1 81 1V33H1Z" fill="url(#paint0_linear_354_636)"/>
<path d="M1 33C1 33 9.01274 27 12 27C14.9873 27 18.0882 29.9405 21 27.0049C23.9118 24.0693 24.5129 20.9888 27 23C29.4871 25.0112 31.8681 25.0112 33 23C34.1319 20.9888 33.0298 20 37 20C40.9702 20 40.6172 14.3457 42 11C43.3828 7.65431 45.4209 4.17701 49 7C52.5791 9.82299 55.017 7.96154 56 6C56.983 4.03846 57.8021 3 60 3C62.1979 3 62.1776 5 64 5C65.8224 5 66.3995 7 69 7C71.6005 7 73.0745 2.00251 75 2.00251C76.9255 2.00251 81 1 81 1" stroke="#1ED760" stroke-width="2" stroke-linecap="round" stroke-linejoin="round"/>
<defs>
<linearGradient id="paint0_linear_354_636" x1="1.17025" y1="1" x2="1.17025" y2="32.8638" gradientUnits="userSpaceOnUse">
<stop stop-color="#1ED760"/>
<stop offset="1" stop-color="#1ED760" stop-opacity="0.01"/>
</linearGradient>
</defs>
</svg>
