<svg width="327" height="200" viewBox="0 0 327 200" fill="none" xmlns="http://www.w3.org/2000/svg">
<path opacity="0.4" d="M67 168V8" stroke="#F61C7A" stroke-linecap="round" stroke-linejoin="round" stroke-dasharray="6"/>
<path d="M59.1087 188.06H59.9487L63.0687 192.596L66.1887 188.06H67.0287V197H66.0687V189.932L63.0927 194.24H63.0447L60.0687 189.908V197H59.1087V188.06ZM72.02 197.144C71.42 197.144 70.868 197 70.364 196.712C69.868 196.416 69.472 196.012 69.176 195.5C68.888 194.98 68.744 194.404 68.744 193.772C68.744 193.14 68.884 192.572 69.164 192.068C69.452 191.556 69.844 191.156 70.34 190.868C70.844 190.572 71.404 190.424 72.02 190.424C72.636 190.424 73.192 190.568 73.688 190.856C74.184 191.144 74.572 191.544 74.852 192.056C75.14 192.568 75.284 193.14 75.284 193.772C75.284 194.42 75.136 195 74.84 195.512C74.552 196.024 74.156 196.424 73.652 196.712C73.156 197 72.612 197.144 72.02 197.144ZM69.704 193.772C69.704 194.236 69.804 194.656 70.004 195.032C70.212 195.408 70.492 195.704 70.844 195.92C71.204 196.136 71.596 196.244 72.02 196.244C72.444 196.244 72.832 196.136 73.184 195.92C73.536 195.704 73.812 195.408 74.012 195.032C74.22 194.648 74.324 194.228 74.324 193.772C74.324 193.316 74.22 192.904 74.012 192.536C73.812 192.16 73.536 191.864 73.184 191.648C72.832 191.432 72.444 191.324 72.02 191.324C71.596 191.324 71.204 191.432 70.844 191.648C70.492 191.864 70.212 192.16 70.004 192.536C69.804 192.904 69.704 193.316 69.704 193.772Z" fill="#6C727F"/>
<path opacity="0.4" d="M107 168V8" stroke="#F61C7A" stroke-linecap="round" stroke-linejoin="round" stroke-dasharray="6"/>
<path d="M103.334 188.96H100.862V188.06H106.742V188.96H104.294V197H103.334V188.96ZM109.595 197.144C109.147 197.144 108.739 197.04 108.371 196.832C108.003 196.616 107.711 196.316 107.495 195.932C107.287 195.548 107.183 195.112 107.183 194.624V190.568H108.083V194.516C108.083 195.036 108.235 195.456 108.539 195.776C108.851 196.088 109.255 196.244 109.751 196.244C110.255 196.244 110.663 196.08 110.975 195.752C111.287 195.416 111.443 194.964 111.443 194.396V190.568H112.343V197H111.443V196.208C111.251 196.504 110.991 196.736 110.663 196.904C110.343 197.064 109.987 197.144 109.595 197.144Z" fill="#6C727F"/>
<path opacity="0.4" d="M147 168V8" stroke="#F61C7A" stroke-linecap="round" stroke-linejoin="round" stroke-dasharray="6"/>
<path d="M137.775 188.06H138.747L140.871 195.704L143.043 188.06H144.063L146.223 195.68L148.347 188.06H149.319L146.751 197H145.731L143.547 189.344L141.363 197H140.343L137.775 188.06ZM152.827 197.144C152.235 197.144 151.695 197 151.207 196.712C150.719 196.416 150.335 196.012 150.055 195.5C149.775 194.98 149.635 194.4 149.635 193.76C149.635 193.128 149.767 192.56 150.031 192.056C150.303 191.544 150.675 191.144 151.147 190.856C151.619 190.568 152.147 190.424 152.731 190.424C153.323 190.424 153.843 190.568 154.291 190.856C154.739 191.144 155.083 191.524 155.323 191.996C155.571 192.468 155.695 192.964 155.695 193.484C155.695 193.684 155.679 193.876 155.647 194.06H150.583C150.591 194.508 150.699 194.904 150.907 195.248C151.123 195.584 151.399 195.844 151.735 196.028C152.079 196.212 152.443 196.304 152.827 196.304C153.667 196.304 154.323 195.912 154.795 195.128L155.563 195.536C155.355 195.992 155.003 196.376 154.507 196.688C154.019 196.992 153.459 197.144 152.827 197.144ZM154.723 193.22C154.723 192.852 154.631 192.52 154.447 192.224C154.271 191.92 154.031 191.684 153.727 191.516C153.423 191.348 153.091 191.264 152.731 191.264C152.379 191.264 152.047 191.344 151.735 191.504C151.431 191.664 151.175 191.892 150.967 192.188C150.767 192.484 150.647 192.828 150.607 193.22H154.723Z" fill="#6C727F"/>
<path opacity="0.4" d="M187 168V8" stroke="#F61C7A" stroke-linecap="round" stroke-linejoin="round" stroke-dasharray="6"/>
<path d="M183.094 188.96H180.622V188.06H186.502V188.96H184.054V197H183.094V188.96ZM187.555 187.916H188.455V191.36C188.647 191.064 188.903 190.836 189.223 190.676C189.551 190.508 189.911 190.424 190.303 190.424C190.751 190.424 191.159 190.528 191.527 190.736C191.895 190.944 192.183 191.232 192.391 191.6C192.607 191.968 192.715 192.376 192.715 192.824V197H191.815V193.172C191.815 192.604 191.659 192.156 191.347 191.828C191.035 191.492 190.635 191.324 190.147 191.324C189.659 191.324 189.255 191.492 188.935 191.828C188.615 192.164 188.455 192.612 188.455 193.172V197H187.555V187.916Z" fill="#6C727F"/>
<path opacity="0.4" d="M227 168V8" stroke="#F61C7A" stroke-linecap="round" stroke-linejoin="round" stroke-dasharray="6"/>
<path d="M222.724 188.06H228.244V188.96H223.684V192.068H227.884V192.968H223.684V197H222.724V188.06ZM229.201 190.568H230.101V191.264C230.269 191.016 230.497 190.824 230.785 190.688C231.073 190.552 231.409 190.484 231.793 190.484H232.201V191.384H231.637C231.165 191.384 230.789 191.532 230.509 191.828C230.237 192.116 230.101 192.52 230.101 193.04V197H229.201V190.568Z" fill="#6C727F"/>
<path opacity="0.4" d="M267 168V8" stroke="#F61C7A" stroke-linecap="round" stroke-linejoin="round" stroke-dasharray="6"/>
<path d="M263.873 197.144C263.321 197.144 262.809 197.04 262.337 196.832C261.873 196.616 261.477 196.328 261.149 195.968C260.829 195.6 260.601 195.192 260.465 194.744L261.329 194.444C261.457 194.828 261.661 195.16 261.941 195.44C262.229 195.712 262.545 195.92 262.889 196.064C263.241 196.208 263.569 196.28 263.873 196.28C264.233 196.28 264.561 196.204 264.857 196.052C265.153 195.892 265.385 195.696 265.553 195.464C265.721 195.232 265.805 195.008 265.805 194.792C265.805 194.432 265.681 194.104 265.433 193.808C265.185 193.512 264.845 193.316 264.413 193.22L262.805 192.848C262.197 192.712 261.717 192.404 261.365 191.924C261.013 191.444 260.837 190.916 260.837 190.34C260.837 189.876 260.953 189.46 261.185 189.092C261.417 188.724 261.733 188.436 262.133 188.228C262.541 188.02 263.001 187.916 263.513 187.916C264.025 187.916 264.497 188.012 264.929 188.204C265.369 188.396 265.737 188.656 266.033 188.984C266.337 189.304 266.553 189.66 266.681 190.052L265.841 190.388C265.721 190.052 265.529 189.764 265.265 189.524C265.009 189.276 264.725 189.092 264.413 188.972C264.101 188.844 263.805 188.78 263.525 188.78C263.197 188.78 262.901 188.852 262.637 188.996C262.373 189.14 262.165 189.328 262.013 189.56C261.869 189.792 261.797 190.028 261.797 190.268C261.797 190.636 261.933 190.98 262.205 191.3C262.477 191.62 262.813 191.824 263.213 191.912L264.629 192.236C265.317 192.396 265.845 192.696 266.213 193.136C266.581 193.576 266.765 194.1 266.765 194.708C266.765 195.18 266.641 195.604 266.393 195.98C266.153 196.348 265.813 196.636 265.373 196.844C264.933 197.044 264.433 197.144 263.873 197.144ZM270.112 197.144C269.712 197.144 269.348 197.068 269.02 196.916C268.7 196.756 268.448 196.54 268.264 196.268C268.08 195.988 267.988 195.676 267.988 195.332C267.988 194.812 268.156 194.372 268.492 194.012C268.836 193.652 269.352 193.416 270.04 193.304L272.368 192.92V192.584C272.368 192.2 272.228 191.888 271.948 191.648C271.668 191.408 271.304 191.288 270.856 191.288C270.472 191.288 270.132 191.384 269.836 191.576C269.54 191.768 269.316 192.024 269.164 192.344L268.348 191.9C268.532 191.484 268.86 191.136 269.332 190.856C269.812 190.568 270.32 190.424 270.856 190.424C271.32 190.424 271.736 190.516 272.104 190.7C272.472 190.884 272.756 191.14 272.956 191.468C273.164 191.796 273.268 192.168 273.268 192.584V197H272.368V196.076C272.152 196.396 271.844 196.656 271.444 196.856C271.044 197.048 270.6 197.144 270.112 197.144ZM268.948 195.296C268.948 195.584 269.064 195.828 269.296 196.028C269.528 196.228 269.82 196.328 270.172 196.328C270.596 196.328 270.976 196.236 271.312 196.052C271.648 195.868 271.908 195.616 272.092 195.296C272.276 194.968 272.368 194.608 272.368 194.216V193.736L270.256 194.084C269.808 194.156 269.476 194.3 269.26 194.516C269.052 194.724 268.948 194.984 268.948 195.296Z" fill="#6C727F"/>
<path opacity="0.4" d="M307 168V8" stroke="#F61C7A" stroke-linecap="round" stroke-linejoin="round" stroke-dasharray="6"/>
<path d="M303.75 197.144C303.198 197.144 302.686 197.04 302.214 196.832C301.75 196.616 301.354 196.328 301.026 195.968C300.706 195.6 300.478 195.192 300.342 194.744L301.206 194.444C301.334 194.828 301.538 195.16 301.818 195.44C302.106 195.712 302.422 195.92 302.766 196.064C303.118 196.208 303.446 196.28 303.75 196.28C304.11 196.28 304.438 196.204 304.734 196.052C305.03 195.892 305.262 195.696 305.43 195.464C305.598 195.232 305.682 195.008 305.682 194.792C305.682 194.432 305.558 194.104 305.31 193.808C305.062 193.512 304.722 193.316 304.29 193.22L302.682 192.848C302.074 192.712 301.594 192.404 301.242 191.924C300.89 191.444 300.714 190.916 300.714 190.34C300.714 189.876 300.83 189.46 301.062 189.092C301.294 188.724 301.61 188.436 302.01 188.228C302.418 188.02 302.878 187.916 303.39 187.916C303.902 187.916 304.374 188.012 304.806 188.204C305.246 188.396 305.614 188.656 305.91 188.984C306.214 189.304 306.43 189.66 306.558 190.052L305.718 190.388C305.598 190.052 305.406 189.764 305.142 189.524C304.886 189.276 304.602 189.092 304.29 188.972C303.978 188.844 303.682 188.78 303.402 188.78C303.074 188.78 302.778 188.852 302.514 188.996C302.25 189.14 302.042 189.328 301.89 189.56C301.746 189.792 301.674 190.028 301.674 190.268C301.674 190.636 301.81 190.98 302.082 191.3C302.354 191.62 302.69 191.824 303.09 191.912L304.506 192.236C305.194 192.396 305.722 192.696 306.09 193.136C306.458 193.576 306.642 194.1 306.642 194.708C306.642 195.18 306.518 195.604 306.27 195.98C306.03 196.348 305.69 196.636 305.25 196.844C304.81 197.044 304.31 197.144 303.75 197.144ZM310.643 197.144C310.195 197.144 309.787 197.04 309.419 196.832C309.051 196.616 308.759 196.316 308.543 195.932C308.335 195.548 308.231 195.112 308.231 194.624V190.568H309.131V194.516C309.131 195.036 309.283 195.456 309.587 195.776C309.899 196.088 310.303 196.244 310.799 196.244C311.303 196.244 311.711 196.08 312.023 195.752C312.335 195.416 312.491 194.964 312.491 194.396V190.568H313.391V197H312.491V196.208C312.299 196.504 312.039 196.736 311.711 196.904C311.391 197.064 311.035 197.144 310.643 197.144Z" fill="#6C727F"/>
<path d="M3.552 13.108C2.84 13.012 2.224 12.748 1.704 12.316C1.192 11.876 0.844 11.352 0.66 10.744L1.524 10.42C1.7 10.932 1.96 11.344 2.304 11.656C2.648 11.96 3.064 12.156 3.552 12.244V8.908L3 8.74C2.376 8.556 1.892 8.252 1.548 7.828C1.204 7.396 1.032 6.9 1.032 6.34C1.032 5.892 1.14 5.488 1.356 5.128C1.572 4.768 1.872 4.484 2.256 4.276C2.64 4.06 3.072 3.94 3.552 3.916V2.86H4.392V3.976C5 4.088 5.524 4.336 5.964 4.72C6.404 5.096 6.708 5.54 6.876 6.052L6.036 6.388C5.884 5.98 5.668 5.648 5.388 5.392C5.116 5.128 4.784 4.948 4.392 4.852V8.2L4.824 8.332C6.248 8.756 6.96 9.548 6.96 10.708C6.96 11.148 6.852 11.544 6.636 11.896C6.42 12.248 6.116 12.532 5.724 12.748C5.34 12.964 4.896 13.092 4.392 13.132V14.2H3.552V13.108ZM1.992 6.268C1.992 6.644 2.112 6.976 2.352 7.264C2.592 7.552 2.944 7.768 3.408 7.912L3.552 7.96V4.78C3.08 4.812 2.7 4.96 2.412 5.224C2.132 5.488 1.992 5.836 1.992 6.268ZM4.392 12.268C4.88 12.212 5.268 12.056 5.556 11.8C5.852 11.536 6 11.2 6 10.792C6 10.368 5.884 10.036 5.652 9.796C5.42 9.548 5.072 9.356 4.608 9.22L4.392 9.16V12.268ZM8.45381 12.4L10.9498 9.652L11.3098 9.256C11.7978 8.728 12.1498 8.328 12.3658 8.056C12.5898 7.784 12.7618 7.52 12.8818 7.264C13.0018 7 13.0618 6.72 13.0618 6.424C13.0618 5.896 12.9058 5.488 12.5938 5.2C12.2898 4.904 11.8738 4.756 11.3458 4.756C10.8098 4.756 10.3578 4.908 9.98981 5.212C9.62981 5.516 9.38581 5.94 9.25781 6.484L8.38181 6.292C8.54181 5.564 8.88581 4.988 9.41381 4.564C9.94181 4.132 10.5818 3.916 11.3338 3.916C11.8618 3.916 12.3258 4.024 12.7258 4.24C13.1338 4.448 13.4498 4.744 13.6738 5.128C13.9058 5.512 14.0218 5.944 14.0218 6.424C14.0218 6.896 13.8778 7.356 13.5898 7.804C13.3098 8.252 12.8138 8.872 12.1018 9.664L9.83381 12.16H14.2618V13H8.45381V12.4ZM18.7211 13.144C18.1531 13.144 17.6411 13.028 17.1851 12.796C16.7291 12.556 16.3691 12.232 16.1051 11.824C15.8491 11.408 15.7211 10.94 15.7211 10.42C15.7211 9.9 15.8571 9.432 16.1291 9.016C16.4011 8.592 16.7731 8.276 17.2451 8.068C16.9091 7.868 16.6491 7.604 16.4651 7.276C16.2811 6.948 16.1891 6.596 16.1891 6.22C16.1891 5.788 16.2971 5.396 16.5131 5.044C16.7371 4.692 17.0411 4.416 17.4251 4.216C17.8171 4.016 18.2491 3.916 18.7211 3.916C19.2011 3.916 19.6331 4.016 20.0171 4.216C20.4011 4.408 20.7011 4.68 20.9171 5.032C21.1331 5.384 21.2411 5.78 21.2411 6.22C21.2411 6.612 21.1491 6.968 20.9651 7.288C20.7811 7.608 20.5251 7.868 20.1971 8.068C20.6691 8.276 21.0411 8.592 21.3131 9.016C21.5851 9.432 21.7211 9.9 21.7211 10.42C21.7211 10.94 21.5891 11.408 21.3251 11.824C21.0691 12.232 20.7131 12.556 20.2571 12.796C19.8011 13.028 19.2891 13.144 18.7211 13.144ZM16.6811 10.42C16.6811 10.988 16.8691 11.444 17.2451 11.788C17.6211 12.132 18.1131 12.304 18.7211 12.304C19.3291 12.304 19.8211 12.132 20.1971 11.788C20.5731 11.444 20.7611 10.988 20.7611 10.42C20.7611 9.852 20.5731 9.396 20.1971 9.052C19.8211 8.708 19.3291 8.536 18.7211 8.536C18.1131 8.536 17.6211 8.708 17.2451 9.052C16.8691 9.396 16.6811 9.852 16.6811 10.42ZM17.1491 6.22C17.1491 6.66 17.2971 7.016 17.5931 7.288C17.8971 7.56 18.2731 7.696 18.7211 7.696C19.1691 7.696 19.5411 7.56 19.8371 7.288C20.1331 7.016 20.2811 6.66 20.2811 6.22C20.2811 5.788 20.1331 5.436 19.8371 5.164C19.5411 4.892 19.1691 4.756 18.7211 4.756C18.2731 4.756 17.8971 4.892 17.5931 5.164C17.2971 5.436 17.1491 5.788 17.1491 6.22ZM26.8923 13.144C26.1963 13.144 25.5803 12.952 25.0443 12.568C24.5083 12.184 24.0923 11.644 23.7963 10.948C23.5003 10.244 23.3523 9.436 23.3523 8.524C23.3523 7.612 23.5003 6.808 23.7963 6.112C24.0923 5.416 24.5043 4.876 25.0323 4.492C25.5683 4.108 26.1843 3.916 26.8803 3.916C27.5763 3.916 28.1883 4.108 28.7163 4.492C29.2523 4.876 29.6683 5.416 29.9643 6.112C30.2603 6.808 30.4083 7.612 30.4083 8.524C30.4083 9.436 30.2603 10.244 29.9643 10.948C29.6763 11.644 29.2643 12.184 28.7283 12.568C28.2003 12.952 27.5883 13.144 26.8923 13.144ZM24.3123 8.524C24.3123 9.26 24.4203 9.908 24.6363 10.468C24.8523 11.028 25.1523 11.464 25.5363 11.776C25.9283 12.088 26.3803 12.244 26.8923 12.244C27.3963 12.244 27.8403 12.092 28.2243 11.788C28.6163 11.476 28.9203 11.04 29.1363 10.48C29.3523 9.912 29.4603 9.26 29.4603 8.524C29.4603 7.788 29.3523 7.14 29.1363 6.58C28.9203 6.02 28.6163 5.588 28.2243 5.284C27.8403 4.972 27.3923 4.816 26.8803 4.816C26.3763 4.816 25.9283 4.972 25.5363 5.284C25.1523 5.588 24.8523 6.02 24.6363 6.58C24.4203 7.14 24.3123 7.788 24.3123 8.524Z" fill="#6C727F"/>
<path d="M3.552 53.108C2.84 53.012 2.224 52.748 1.704 52.316C1.192 51.876 0.844 51.352 0.66 50.744L1.524 50.42C1.7 50.932 1.96 51.344 2.304 51.656C2.648 51.96 3.064 52.156 3.552 52.244V48.908L3 48.74C2.376 48.556 1.892 48.252 1.548 47.828C1.204 47.396 1.032 46.9 1.032 46.34C1.032 45.892 1.14 45.488 1.356 45.128C1.572 44.768 1.872 44.484 2.256 44.276C2.64 44.06 3.072 43.94 3.552 43.916V42.86H4.392V43.976C5 44.088 5.524 44.336 5.964 44.72C6.404 45.096 6.708 45.54 6.876 46.052L6.036 46.388C5.884 45.98 5.668 45.648 5.388 45.392C5.116 45.128 4.784 44.948 4.392 44.852V48.2L4.824 48.332C6.248 48.756 6.96 49.548 6.96 50.708C6.96 51.148 6.852 51.544 6.636 51.896C6.42 52.248 6.116 52.532 5.724 52.748C5.34 52.964 4.896 53.092 4.392 53.132V54.2H3.552V53.108ZM1.992 46.268C1.992 46.644 2.112 46.976 2.352 47.264C2.592 47.552 2.944 47.768 3.408 47.912L3.552 47.96V44.78C3.08 44.812 2.7 44.96 2.412 45.224C2.132 45.488 1.992 45.836 1.992 46.268ZM4.392 52.268C4.88 52.212 5.268 52.056 5.556 51.8C5.852 51.536 6 51.2 6 50.792C6 50.368 5.884 50.036 5.652 49.796C5.42 49.548 5.072 49.356 4.608 49.22L4.392 49.16V52.268ZM8.45381 52.4L10.9498 49.652L11.3098 49.256C11.7978 48.728 12.1498 48.328 12.3658 48.056C12.5898 47.784 12.7618 47.52 12.8818 47.264C13.0018 47 13.0618 46.72 13.0618 46.424C13.0618 45.896 12.9058 45.488 12.5938 45.2C12.2898 44.904 11.8738 44.756 11.3458 44.756C10.8098 44.756 10.3578 44.908 9.98981 45.212C9.62981 45.516 9.38581 45.94 9.25781 46.484L8.38181 46.292C8.54181 45.564 8.88581 44.988 9.41381 44.564C9.94181 44.132 10.5818 43.916 11.3338 43.916C11.8618 43.916 12.3258 44.024 12.7258 44.24C13.1338 44.448 13.4498 44.744 13.6738 45.128C13.9058 45.512 14.0218 45.944 14.0218 46.424C14.0218 46.896 13.8778 47.356 13.5898 47.804C13.3098 48.252 12.8138 48.872 12.1018 49.664L9.83381 52.16H14.2618V53H8.45381V52.4ZM18.5531 53.144C18.0011 53.144 17.5051 53.02 17.0651 52.772C16.6251 52.516 16.2811 52.164 16.0331 51.716C15.7931 51.268 15.6731 50.76 15.6731 50.192C15.6731 49.256 16.0171 48.328 16.7051 47.408L19.2251 44.06H20.3771L17.5691 47.732C17.8571 47.556 18.2251 47.468 18.6731 47.468C19.1851 47.468 19.6531 47.592 20.0771 47.84C20.5011 48.08 20.8331 48.416 21.0731 48.848C21.3131 49.28 21.4331 49.768 21.4331 50.312C21.4331 50.848 21.3051 51.332 21.0491 51.764C20.8011 52.188 20.4571 52.524 20.0171 52.772C19.5851 53.02 19.0971 53.144 18.5531 53.144ZM16.6331 50.312C16.6331 50.688 16.7171 51.028 16.8851 51.332C17.0531 51.636 17.2811 51.876 17.5691 52.052C17.8651 52.22 18.1931 52.304 18.5531 52.304C18.9131 52.304 19.2371 52.22 19.5251 52.052C19.8211 51.876 20.0531 51.636 20.2211 51.332C20.3891 51.028 20.4731 50.688 20.4731 50.312C20.4731 49.936 20.3891 49.6 20.2211 49.304C20.0611 49 19.8331 48.764 19.5371 48.596C19.2491 48.42 18.9211 48.332 18.5531 48.332C18.1851 48.332 17.8531 48.42 17.5571 48.596C17.2691 48.764 17.0411 49 16.8731 49.304C16.7131 49.6 16.6331 49.936 16.6331 50.312ZM26.5173 53.144C25.8213 53.144 25.2053 52.952 24.6693 52.568C24.1333 52.184 23.7173 51.644 23.4213 50.948C23.1253 50.244 22.9773 49.436 22.9773 48.524C22.9773 47.612 23.1253 46.808 23.4213 46.112C23.7173 45.416 24.1293 44.876 24.6573 44.492C25.1933 44.108 25.8093 43.916 26.5053 43.916C27.2013 43.916 27.8133 44.108 28.3413 44.492C28.8773 44.876 29.2933 45.416 29.5893 46.112C29.8853 46.808 30.0333 47.612 30.0333 48.524C30.0333 49.436 29.8853 50.244 29.5893 50.948C29.3013 51.644 28.8893 52.184 28.3533 52.568C27.8253 52.952 27.2133 53.144 26.5173 53.144ZM23.9373 48.524C23.9373 49.26 24.0453 49.908 24.2613 50.468C24.4773 51.028 24.7773 51.464 25.1613 51.776C25.5533 52.088 26.0053 52.244 26.5173 52.244C27.0213 52.244 27.4653 52.092 27.8493 51.788C28.2413 51.476 28.5453 51.04 28.7613 50.48C28.9773 49.912 29.0853 49.26 29.0853 48.524C29.0853 47.788 28.9773 47.14 28.7613 46.58C28.5453 46.02 28.2413 45.588 27.8493 45.284C27.4653 44.972 27.0173 44.816 26.5053 44.816C26.0013 44.816 25.5533 44.972 25.1613 45.284C24.7773 45.588 24.4773 46.02 24.2613 46.58C24.0453 47.14 23.9373 47.788 23.9373 48.524Z" fill="#6C727F"/>
<path d="M3.552 93.108C2.84 93.012 2.224 92.748 1.704 92.316C1.192 91.876 0.844 91.352 0.66 90.744L1.524 90.42C1.7 90.932 1.96 91.344 2.304 91.656C2.648 91.96 3.064 92.156 3.552 92.244V88.908L3 88.74C2.376 88.556 1.892 88.252 1.548 87.828C1.204 87.396 1.032 86.9 1.032 86.34C1.032 85.892 1.14 85.488 1.356 85.128C1.572 84.768 1.872 84.484 2.256 84.276C2.64 84.06 3.072 83.94 3.552 83.916V82.86H4.392V83.976C5 84.088 5.524 84.336 5.964 84.72C6.404 85.096 6.708 85.54 6.876 86.052L6.036 86.388C5.884 85.98 5.668 85.648 5.388 85.392C5.116 85.128 4.784 84.948 4.392 84.852V88.2L4.824 88.332C6.248 88.756 6.96 89.548 6.96 90.708C6.96 91.148 6.852 91.544 6.636 91.896C6.42 92.248 6.116 92.532 5.724 92.748C5.34 92.964 4.896 93.092 4.392 93.132V94.2H3.552V93.108ZM1.992 86.268C1.992 86.644 2.112 86.976 2.352 87.264C2.592 87.552 2.944 87.768 3.408 87.912L3.552 87.96V84.78C3.08 84.812 2.7 84.96 2.412 85.224C2.132 85.488 1.992 85.836 1.992 86.268ZM4.392 92.268C4.88 92.212 5.268 92.056 5.556 91.8C5.852 91.536 6 91.2 6 90.792C6 90.368 5.884 90.036 5.652 89.796C5.42 89.548 5.072 89.356 4.608 89.22L4.392 89.16V92.268ZM8.45381 92.4L10.9498 89.652L11.3098 89.256C11.7978 88.728 12.1498 88.328 12.3658 88.056C12.5898 87.784 12.7618 87.52 12.8818 87.264C13.0018 87 13.0618 86.72 13.0618 86.424C13.0618 85.896 12.9058 85.488 12.5938 85.2C12.2898 84.904 11.8738 84.756 11.3458 84.756C10.8098 84.756 10.3578 84.908 9.98981 85.212C9.62981 85.516 9.38581 85.94 9.25781 86.484L8.38181 86.292C8.54181 85.564 8.88581 84.988 9.41381 84.564C9.94181 84.132 10.5818 83.916 11.3338 83.916C11.8618 83.916 12.3258 84.024 12.7258 84.24C13.1338 84.448 13.4498 84.744 13.6738 85.128C13.9058 85.512 14.0218 85.944 14.0218 86.424C14.0218 86.896 13.8778 87.356 13.5898 87.804C13.3098 88.252 12.8138 88.872 12.1018 89.664L9.83381 92.16H14.2618V93H8.45381V92.4ZM19.9359 90.888H15.3879V90.108L19.9359 84.06H20.7759V90.108H21.8679V90.888H20.7759V93H19.9359V90.888ZM19.9359 90.108V85.368L16.3839 90.108H19.9359ZM26.7985 93.144C26.1025 93.144 25.4865 92.952 24.9505 92.568C24.4145 92.184 23.9985 91.644 23.7025 90.948C23.4065 90.244 23.2585 89.436 23.2585 88.524C23.2585 87.612 23.4065 86.808 23.7025 86.112C23.9985 85.416 24.4105 84.876 24.9385 84.492C25.4745 84.108 26.0905 83.916 26.7865 83.916C27.4825 83.916 28.0945 84.108 28.6225 84.492C29.1585 84.876 29.5745 85.416 29.8705 86.112C30.1665 86.808 30.3145 87.612 30.3145 88.524C30.3145 89.436 30.1665 90.244 29.8705 90.948C29.5825 91.644 29.1705 92.184 28.6345 92.568C28.1065 92.952 27.4945 93.144 26.7985 93.144ZM24.2185 88.524C24.2185 89.26 24.3265 89.908 24.5425 90.468C24.7585 91.028 25.0585 91.464 25.4425 91.776C25.8345 92.088 26.2865 92.244 26.7985 92.244C27.3025 92.244 27.7465 92.092 28.1305 91.788C28.5225 91.476 28.8265 91.04 29.0425 90.48C29.2585 89.912 29.3665 89.26 29.3665 88.524C29.3665 87.788 29.2585 87.14 29.0425 86.58C28.8265 86.02 28.5225 85.588 28.1305 85.284C27.7465 84.972 27.2985 84.816 26.7865 84.816C26.2825 84.816 25.8345 84.972 25.4425 85.284C25.0585 85.588 24.7585 86.02 24.5425 86.58C24.3265 87.14 24.2185 87.788 24.2185 88.524Z" fill="#6C727F"/>
<path d="M3.552 133.108C2.84 133.012 2.224 132.748 1.704 132.316C1.192 131.876 0.844 131.352 0.66 130.744L1.524 130.42C1.7 130.932 1.96 131.344 2.304 131.656C2.648 131.96 3.064 132.156 3.552 132.244V128.908L3 128.74C2.376 128.556 1.892 128.252 1.548 127.828C1.204 127.396 1.032 126.9 1.032 126.34C1.032 125.892 1.14 125.488 1.356 125.128C1.572 124.768 1.872 124.484 2.256 124.276C2.64 124.06 3.072 123.94 3.552 123.916V122.86H4.392V123.976C5 124.088 5.524 124.336 5.964 124.72C6.404 125.096 6.708 125.54 6.876 126.052L6.036 126.388C5.884 125.98 5.668 125.648 5.388 125.392C5.116 125.128 4.784 124.948 4.392 124.852V128.2L4.824 128.332C6.248 128.756 6.96 129.548 6.96 130.708C6.96 131.148 6.852 131.544 6.636 131.896C6.42 132.248 6.116 132.532 5.724 132.748C5.34 132.964 4.896 133.092 4.392 133.132V134.2H3.552V133.108ZM1.992 126.268C1.992 126.644 2.112 126.976 2.352 127.264C2.592 127.552 2.944 127.768 3.408 127.912L3.552 127.96V124.78C3.08 124.812 2.7 124.96 2.412 125.224C2.132 125.488 1.992 125.836 1.992 126.268ZM4.392 132.268C4.88 132.212 5.268 132.056 5.556 131.8C5.852 131.536 6 131.2 6 130.792C6 130.368 5.884 130.036 5.652 129.796C5.42 129.548 5.072 129.356 4.608 129.22L4.392 129.16V132.268ZM8.45381 132.4L10.9498 129.652L11.3098 129.256C11.7978 128.728 12.1498 128.328 12.3658 128.056C12.5898 127.784 12.7618 127.52 12.8818 127.264C13.0018 127 13.0618 126.72 13.0618 126.424C13.0618 125.896 12.9058 125.488 12.5938 125.2C12.2898 124.904 11.8738 124.756 11.3458 124.756C10.8098 124.756 10.3578 124.908 9.98981 125.212C9.62981 125.516 9.38581 125.94 9.25781 126.484L8.38181 126.292C8.54181 125.564 8.88581 124.988 9.41381 124.564C9.94181 124.132 10.5818 123.916 11.3338 123.916C11.8618 123.916 12.3258 124.024 12.7258 124.24C13.1338 124.448 13.4498 124.744 13.6738 125.128C13.9058 125.512 14.0218 125.944 14.0218 126.424C14.0218 126.896 13.8778 127.356 13.5898 127.804C13.3098 128.252 12.8138 128.872 12.1018 129.664L9.83381 132.16H14.2618V133H8.45381V132.4ZM15.6491 132.4L18.1451 129.652L18.5051 129.256C18.9931 128.728 19.3451 128.328 19.5611 128.056C19.7851 127.784 19.9571 127.52 20.0771 127.264C20.1971 127 20.2571 126.72 20.2571 126.424C20.2571 125.896 20.1011 125.488 19.7891 125.2C19.4851 124.904 19.0691 124.756 18.5411 124.756C18.0051 124.756 17.5531 124.908 17.1851 125.212C16.8251 125.516 16.5811 125.94 16.4531 126.484L15.5771 126.292C15.7371 125.564 16.0811 124.988 16.6091 124.564C17.1371 124.132 17.7771 123.916 18.5291 123.916C19.0571 123.916 19.5211 124.024 19.9211 124.24C20.3291 124.448 20.6451 124.744 20.8691 125.128C21.1011 125.512 21.2171 125.944 21.2171 126.424C21.2171 126.896 21.0731 127.356 20.7851 127.804C20.5051 128.252 20.0091 128.872 19.2971 129.664L17.0291 132.16H21.4571V133H15.6491V132.4ZM26.5524 133.144C25.8564 133.144 25.2404 132.952 24.7044 132.568C24.1684 132.184 23.7524 131.644 23.4564 130.948C23.1604 130.244 23.0124 129.436 23.0124 128.524C23.0124 127.612 23.1604 126.808 23.4564 126.112C23.7524 125.416 24.1644 124.876 24.6924 124.492C25.2284 124.108 25.8444 123.916 26.5404 123.916C27.2364 123.916 27.8484 124.108 28.3764 124.492C28.9124 124.876 29.3284 125.416 29.6244 126.112C29.9204 126.808 30.0684 127.612 30.0684 128.524C30.0684 129.436 29.9204 130.244 29.6244 130.948C29.3364 131.644 28.9244 132.184 28.3884 132.568C27.8604 132.952 27.2484 133.144 26.5524 133.144ZM23.9724 128.524C23.9724 129.26 24.0804 129.908 24.2964 130.468C24.5124 131.028 24.8124 131.464 25.1964 131.776C25.5884 132.088 26.0404 132.244 26.5524 132.244C27.0564 132.244 27.5004 132.092 27.8844 131.788C28.2764 131.476 28.5804 131.04 28.7964 130.48C29.0124 129.912 29.1204 129.26 29.1204 128.524C29.1204 127.788 29.0124 127.14 28.7964 126.58C28.5804 126.02 28.2764 125.588 27.8844 125.284C27.5004 124.972 27.0524 124.816 26.5404 124.816C26.0364 124.816 25.5884 124.972 25.1964 125.284C24.8124 125.588 24.5124 126.02 24.2964 126.58C24.0804 127.14 23.9724 127.788 23.9724 128.524Z" fill="#6C727F"/>
<path d="M3.552 173.108C2.84 173.012 2.224 172.748 1.704 172.316C1.192 171.876 0.844 171.352 0.66 170.744L1.524 170.42C1.7 170.932 1.96 171.344 2.304 171.656C2.648 171.96 3.064 172.156 3.552 172.244V168.908L3 168.74C2.376 168.556 1.892 168.252 1.548 167.828C1.204 167.396 1.032 166.9 1.032 166.34C1.032 165.892 1.14 165.488 1.356 165.128C1.572 164.768 1.872 164.484 2.256 164.276C2.64 164.06 3.072 163.94 3.552 163.916V162.86H4.392V163.976C5 164.088 5.524 164.336 5.964 164.72C6.404 165.096 6.708 165.54 6.876 166.052L6.036 166.388C5.884 165.98 5.668 165.648 5.388 165.392C5.116 165.128 4.784 164.948 4.392 164.852V168.2L4.824 168.332C6.248 168.756 6.96 169.548 6.96 170.708C6.96 171.148 6.852 171.544 6.636 171.896C6.42 172.248 6.116 172.532 5.724 172.748C5.34 172.964 4.896 173.092 4.392 173.132V174.2H3.552V173.108ZM1.992 166.268C1.992 166.644 2.112 166.976 2.352 167.264C2.592 167.552 2.944 167.768 3.408 167.912L3.552 167.96V164.78C3.08 164.812 2.7 164.96 2.412 165.224C2.132 165.488 1.992 165.836 1.992 166.268ZM4.392 172.268C4.88 172.212 5.268 172.056 5.556 171.8C5.852 171.536 6 171.2 6 170.792C6 170.368 5.884 170.036 5.652 169.796C5.42 169.548 5.072 169.356 4.608 169.22L4.392 169.16V172.268ZM8.45381 172.4L10.9498 169.652L11.3098 169.256C11.7978 168.728 12.1498 168.328 12.3658 168.056C12.5898 167.784 12.7618 167.52 12.8818 167.264C13.0018 167 13.0618 166.72 13.0618 166.424C13.0618 165.896 12.9058 165.488 12.5938 165.2C12.2898 164.904 11.8738 164.756 11.3458 164.756C10.8098 164.756 10.3578 164.908 9.98981 165.212C9.62981 165.516 9.38581 165.94 9.25781 166.484L8.38181 166.292C8.54181 165.564 8.88581 164.988 9.41381 164.564C9.94181 164.132 10.5818 163.916 11.3338 163.916C11.8618 163.916 12.3258 164.024 12.7258 164.24C13.1338 164.448 13.4498 164.744 13.6738 165.128C13.9058 165.512 14.0218 165.944 14.0218 166.424C14.0218 166.896 13.8778 167.356 13.5898 167.804C13.3098 168.252 12.8138 168.872 12.1018 169.664L9.83381 172.16H14.2618V173H8.45381V172.4ZM19.3571 173.144C18.6611 173.144 18.0451 172.952 17.5091 172.568C16.9731 172.184 16.5571 171.644 16.2611 170.948C15.9651 170.244 15.8171 169.436 15.8171 168.524C15.8171 167.612 15.9651 166.808 16.2611 166.112C16.5571 165.416 16.9691 164.876 17.4971 164.492C18.0331 164.108 18.6491 163.916 19.3451 163.916C20.0411 163.916 20.6531 164.108 21.1811 164.492C21.7171 164.876 22.1331 165.416 22.4291 166.112C22.7251 166.808 22.8731 167.612 22.8731 168.524C22.8731 169.436 22.7251 170.244 22.4291 170.948C22.1411 171.644 21.7291 172.184 21.1931 172.568C20.6651 172.952 20.0531 173.144 19.3571 173.144ZM16.7771 168.524C16.7771 169.26 16.8851 169.908 17.1011 170.468C17.3171 171.028 17.6171 171.464 18.0011 171.776C18.3931 172.088 18.8451 172.244 19.3571 172.244C19.8611 172.244 20.3051 172.092 20.6891 171.788C21.0811 171.476 21.3851 171.04 21.6011 170.48C21.8171 169.912 21.9251 169.26 21.9251 168.524C21.9251 167.788 21.8171 167.14 21.6011 166.58C21.3851 166.02 21.0811 165.588 20.6891 165.284C20.3051 164.972 19.8571 164.816 19.3451 164.816C18.8411 164.816 18.3931 164.972 18.0011 165.284C17.6171 165.588 17.3171 166.02 17.1011 166.58C16.8851 167.14 16.7771 167.788 16.7771 168.524ZM28.1462 173.144C27.4502 173.144 26.8342 172.952 26.2982 172.568C25.7622 172.184 25.3462 171.644 25.0502 170.948C24.7542 170.244 24.6062 169.436 24.6062 168.524C24.6062 167.612 24.7542 166.808 25.0502 166.112C25.3462 165.416 25.7582 164.876 26.2862 164.492C26.8222 164.108 27.4382 163.916 28.1342 163.916C28.8302 163.916 29.4422 164.108 29.9702 164.492C30.5062 164.876 30.9222 165.416 31.2182 166.112C31.5142 166.808 31.6622 167.612 31.6622 168.524C31.6622 169.436 31.5142 170.244 31.2182 170.948C30.9302 171.644 30.5182 172.184 29.9822 172.568C29.4542 172.952 28.8422 173.144 28.1462 173.144ZM25.5662 168.524C25.5662 169.26 25.6742 169.908 25.8902 170.468C26.1062 171.028 26.4062 171.464 26.7902 171.776C27.1822 172.088 27.6342 172.244 28.1462 172.244C28.6502 172.244 29.0942 172.092 29.4782 171.788C29.8702 171.476 30.1742 171.04 30.3902 170.48C30.6062 169.912 30.7142 169.26 30.7142 168.524C30.7142 167.788 30.6062 167.14 30.3902 166.58C30.1742 166.02 29.8702 165.588 29.4782 165.284C29.0942 164.972 28.6462 164.816 28.1342 164.816C27.6302 164.816 27.1822 164.972 26.7902 165.284C26.4062 165.588 26.1062 166.02 25.8902 166.58C25.6742 167.14 25.5662 167.788 25.5662 168.524Z" fill="#6C727F"/>
<path d="M51 164C51 160.686 53.6863 158 57 158C60.3137 158 63 160.686 63 164V167.231C63 167.656 62.6556 168 62.2308 168H51.7692C51.3444 168 51 167.656 51 167.231V164Z" fill="#908FEC"/>
<path d="M71 154C71 150.686 73.6863 148 77 148C80.3137 148 83 150.686 83 154V166.462C83 167.311 82.3112 168 81.4615 168H72.5385C71.6888 168 71 167.311 71 166.462V154Z" fill="#908FEC"/>
<path d="M91 138C91 134.686 93.6863 132 97 132C100.314 132 103 134.686 103 138V166C103 167.105 102.105 168 101 168H93C91.8954 168 91 167.105 91 166V138Z" fill="#908FEC"/>
<path d="M111 151C111 147.686 113.686 145 117 145C120.314 145 123 147.686 123 151V166.231C123 167.208 122.208 168 121.231 168H112.769C111.792 168 111 167.208 111 166.231V151Z" fill="#908FEC"/>
<path d="M131 164C131 160.686 133.686 158 137 158C140.314 158 143 160.686 143 164V167.231C143 167.656 142.656 168 142.231 168H131.769C131.344 168 131 167.656 131 167.231V164Z" fill="#908FEC"/>
<path d="M151 156C151 152.686 153.686 150 157 150C160.314 150 163 152.686 163 156V166.615C163 167.38 162.38 168 161.615 168H152.385C151.62 168 151 167.38 151 166.615V156Z" fill="#908FEC"/>
<path d="M171 126C171 122.686 173.686 120 177 120C180.314 120 183 122.686 183 126V166C183 167.105 182.105 168 181 168H173C171.895 168 171 167.105 171 166V126Z" fill="#908FEC"/>
<path d="M191 110C191 106.686 193.686 104 197 104C200.314 104 203 106.686 203 110V166C203 167.105 202.105 168 201 168H193C191.895 168 191 167.105 191 166V110Z" fill="#908FEC"/>
<path d="M211 94C211 90.6863 213.686 88 217 88C220.314 88 223 90.6863 223 94V166C223 167.105 222.105 168 221 168H213C211.895 168 211 167.105 211 166V94Z" fill="#908FEC"/>
<path d="M231 106C231 102.686 233.686 100 237 100C240.314 100 243 102.686 243 106V166C243 167.105 242.105 168 241 168H233C231.895 168 231 167.105 231 166V106Z" fill="#908FEC"/>
<path d="M251 134C251 130.686 253.686 128 257 128C260.314 128 263 130.686 263 134V166C263 167.105 262.105 168 261 168H253C251.895 168 251 167.105 251 166V134Z" fill="#908FEC"/>
<path d="M271 120C271 116.686 273.686 114 277 114C280.314 114 283 116.686 283 120V166C283 167.105 282.105 168 281 168H273C271.895 168 271 167.105 271 166V120Z" fill="#908FEC"/>
<path d="M291 104C291 100.686 293.686 98 297 98C300.314 98 303 100.686 303 104V166C303 167.105 302.105 168 301 168H293C291.895 168 291 167.105 291 166V104Z" fill="#908FEC"/>
<path d="M311 160C311 156.686 313.686 154 317 154C320.314 154 323 156.686 323 160V166.923C323 167.518 322.518 168 321.923 168H312.077C311.482 168 311 167.518 311 166.923V160Z" fill="#908FEC"/>
<path fill-rule="evenodd" clip-rule="evenodd" d="M56 130C55.4477 130 55 130.448 55 131V134.126C53.2748 134.57 52 136.136 52 138V146C52 147.864 53.2748 149.43 55 149.874V153C55 153.552 55.4477 154 56 154C56.5523 154 57 153.552 57 153V149.874C58.7252 149.43 60 147.864 60 146V138C60 136.136 58.7252 134.57 57 134.126V131C57 130.448 56.5523 130 56 130Z" fill="#3500D4"/>
<path fill-rule="evenodd" clip-rule="evenodd" d="M74 112C73.4477 112 73 112.448 73 113V122.126C71.2748 122.57 70 124.136 70 126V130C70 131.864 71.2748 133.43 73 133.874V143C73 143.552 73.4477 144 74 144C74.5523 144 75 143.552 75 143V133.874C76.7252 133.43 78 131.864 78 130V126C78 124.136 76.7252 122.57 75 122.126V113C75 112.448 74.5523 112 74 112Z" fill="#F61C7A"/>
<path fill-rule="evenodd" clip-rule="evenodd" d="M94 112C93.4477 112 93 112.448 93 113V114.126C91.2748 114.57 90 116.136 90 118V120C90 121.864 91.2748 123.43 93 123.874V125C93 125.552 93.4477 126 94 126C94.5523 126 95 125.552 95 125V123.874C96.7252 123.43 98 121.864 98 120V118C98 116.136 96.7252 114.57 95 114.126V113C95 112.448 94.5523 112 94 112Z" fill="#3500D4"/>
<path fill-rule="evenodd" clip-rule="evenodd" d="M114 108C113.448 108 113 108.448 113 109V124.126C111.275 124.57 110 126.136 110 128V130C110 131.864 111.275 133.43 113 133.874V135C113 135.552 113.448 136 114 136C114.552 136 115 135.552 115 135V133.874C116.725 133.43 118 131.864 118 130V128C118 126.136 116.725 124.57 115 124.126V109C115 108.448 114.552 108 114 108Z" fill="#F61C7A"/>
<path fill-rule="evenodd" clip-rule="evenodd" d="M131 120C130.448 120 130 120.448 130 121V124.126C128.275 124.57 127 126.136 127 128V144C127 145.864 128.275 147.43 130 147.874V151C130 151.552 130.448 152 131 152C131.552 152 132 151.552 132 151V147.874C133.725 147.43 135 145.864 135 144V128C135 126.136 133.725 124.57 132 124.126V121C132 120.448 131.552 120 131 120Z" fill="#F61C7A"/>
<path fill-rule="evenodd" clip-rule="evenodd" d="M151 96C150.448 96 150 96.4477 150 97V100.126C148.275 100.57 147 102.136 147 104V136C147 137.864 148.275 139.43 150 139.874V143C150 143.552 150.448 144 151 144C151.552 144 152 143.552 152 143V139.874C153.725 139.43 155 137.864 155 136V104C155 102.136 153.725 100.57 152 100.126V97C152 96.4477 151.552 96 151 96Z" fill="#F61C7A"/>
<path fill-rule="evenodd" clip-rule="evenodd" d="M169 49C168.448 49 168 49.4477 168 50V53.126C166.275 53.5701 165 55.1362 165 57V105C165 107.209 166.791 109 169 109C171.209 109 173 107.209 173 105V57C173 55.1362 171.725 53.5701 170 53.126V50C170 49.4477 169.552 49 169 49Z" fill="#F61C7A"/>
<path fill-rule="evenodd" clip-rule="evenodd" d="M187 61C186.448 61 186 61.4477 186 62V63.126C184.275 63.5701 183 65.1362 183 67V73C183 74.8638 184.275 76.4299 186 76.874V78C186 78.5523 186.448 79 187 79C187.552 79 188 78.5523 188 78V76.874C189.725 76.4299 191 74.8638 191 73V67C191 65.1362 189.725 63.5701 188 63.126V62C188 61.4477 187.552 61 187 61Z" fill="#F61C7A"/>
<path fill-rule="evenodd" clip-rule="evenodd" d="M205 37C204.448 37 204 37.4477 204 38V41.126C202.275 41.5701 201 43.1362 201 45V77C201 78.8638 202.275 80.4299 204 80.874V84C204 84.5523 204.448 85 205 85C205.552 85 206 84.5523 206 84V80.874C207.725 80.4299 209 78.8638 209 77V45C209 43.1362 207.725 41.5701 206 41.126V38C206 37.4477 205.552 37 205 37Z" fill="#F61C7A"/>
<path fill-rule="evenodd" clip-rule="evenodd" d="M227 28C226.448 28 226 28.4477 226 29V32.126C224.275 32.5701 223 34.1362 223 36V44C223 45.8638 224.275 47.4299 226 47.874V51C226 51.5523 226.448 52 227 52C227.552 52 228 51.5523 228 51V47.874C229.725 47.4299 231 45.8638 231 44V36C231 34.1362 229.725 32.5701 228 32.126V29C228 28.4477 227.552 28 227 28Z" fill="#3500D4"/>
<path fill-rule="evenodd" clip-rule="evenodd" d="M249 13C248.448 13 248 13.4477 248 14V28.126C246.275 28.5701 245 30.1362 245 32V42C245 43.8638 246.275 45.4299 248 45.874V60C248 60.5523 248.448 61 249 61C249.552 61 250 60.5523 250 60V45.874C251.725 45.4299 253 43.8638 253 42V32C253 30.1362 251.725 28.5701 250 28.126V14C250 13.4477 249.552 13 249 13Z" fill="#3500D4"/>
<path fill-rule="evenodd" clip-rule="evenodd" d="M267 61C266.448 61 266 61.4477 266 62V63.126C264.275 63.5701 263 65.1362 263 67V79C263 80.8638 264.275 82.4299 266 82.874V92C266 92.5523 266.448 93 267 93C267.552 93 268 92.5523 268 92V82.874C269.725 82.4299 271 80.8638 271 79V67C271 65.1362 269.725 63.5701 268 63.126V62C268 61.4477 267.552 61 267 61Z" fill="#F61C7A"/>
<path fill-rule="evenodd" clip-rule="evenodd" d="M287 67C284.791 67 283 68.7909 283 71V79C283 80.8638 284.275 82.4299 286 82.874V86C286 86.5523 286.448 87 287 87C287.552 87 288 86.5523 288 86V82.874C289.725 82.4299 291 80.8638 291 79V71C291 68.7909 289.209 67 287 67Z" fill="#F61C7A"/>
<path fill-rule="evenodd" clip-rule="evenodd" d="M307 14C306.448 14 306 14.4477 306 15V18.126C304.275 18.5701 303 20.1362 303 22V54C303 55.8638 304.275 57.4299 306 57.874V61C306 61.5523 306.448 62 307 62C307.552 62 308 61.5523 308 61V57.874C309.725 57.4299 311 55.8638 311 54V22C311 20.1362 309.725 18.5701 308 18.126V15C308 14.4477 307.552 14 307 14Z" fill="#F61C7A"/>
<path d="M48 82H327" stroke="#03314B" stroke-linecap="round" stroke-linejoin="round" stroke-dasharray="8"/>
<g filter="url(#filter0_d_2_3612)">
<rect x="137" y="72" width="64" height="20" rx="10" fill="#03314B"/>
</g>
<path d="M148.955 87.108C148.235 87.004 147.603 86.736 147.059 86.304C146.523 85.864 146.151 85.316 145.943 84.66L147.299 84.072C147.467 84.472 147.691 84.804 147.971 85.068C148.259 85.332 148.587 85.516 148.955 85.62V83.196L148.379 83.016C147.691 82.792 147.167 82.468 146.807 82.044C146.455 81.62 146.279 81.112 146.279 80.52C146.279 80.048 146.391 79.624 146.615 79.248C146.839 78.864 147.151 78.56 147.551 78.336C147.959 78.104 148.427 77.968 148.955 77.928V76.86H149.975V77.976C150.607 78.08 151.155 78.324 151.619 78.708C152.083 79.092 152.419 79.572 152.627 80.148L151.283 80.748C151.155 80.428 150.979 80.16 150.755 79.944C150.531 79.72 150.271 79.556 149.975 79.452V81.888L150.503 82.056C151.927 82.512 152.639 83.336 152.639 84.528C152.639 84.992 152.527 85.412 152.303 85.788C152.087 86.156 151.775 86.46 151.367 86.7C150.967 86.932 150.503 87.072 149.975 87.12V88.2H148.955V87.108ZM147.887 80.448C147.887 80.696 147.967 80.916 148.127 81.108C148.295 81.292 148.539 81.436 148.859 81.54L148.955 81.576V79.368C148.627 79.416 148.367 79.536 148.175 79.728C147.983 79.92 147.887 80.16 147.887 80.448ZM149.975 85.692C150.303 85.636 150.559 85.516 150.743 85.332C150.935 85.14 151.031 84.904 151.031 84.624C151.031 84.36 150.955 84.144 150.803 83.976C150.651 83.808 150.415 83.672 150.095 83.568L149.975 83.532V85.692ZM153.796 85.764L156.22 83.232C156.74 82.688 157.12 82.276 157.36 81.996C157.6 81.708 157.772 81.46 157.876 81.252C157.98 81.036 158.032 80.816 158.032 80.592C158.032 80.224 157.916 79.932 157.684 79.716C157.452 79.492 157.148 79.38 156.772 79.38C156.38 79.38 156.044 79.492 155.764 79.716C155.492 79.932 155.292 80.252 155.164 80.676L153.736 80.232C153.832 79.768 154.024 79.364 154.312 79.02C154.608 78.668 154.972 78.396 155.404 78.204C155.836 78.012 156.292 77.916 156.772 77.916C157.34 77.916 157.844 78.024 158.284 78.24C158.724 78.448 159.064 78.744 159.304 79.128C159.552 79.504 159.676 79.936 159.676 80.424C159.676 80.904 159.544 81.372 159.28 81.828C159.024 82.276 158.604 82.804 158.02 83.412L155.92 85.62H159.796V87H153.796V85.764ZM164.823 85.032H160.719V83.664L164.727 78.06H166.431V83.664H167.739V85.032H166.431V87H164.823V85.032ZM164.823 83.664V80.076L162.327 83.664H164.823ZM172.675 85.032H168.571V83.664L172.579 78.06H174.283V83.664H175.591V85.032H174.283V87H172.675V85.032ZM172.675 83.664V80.076L170.179 83.664H172.675ZM178.27 87C178.014 87 177.798 86.916 177.622 86.748C177.454 86.572 177.37 86.356 177.37 86.1C177.37 85.852 177.454 85.644 177.622 85.476C177.798 85.3 178.014 85.212 178.27 85.212C178.518 85.212 178.726 85.296 178.894 85.464C179.062 85.632 179.146 85.844 179.146 86.1C179.146 86.356 179.062 86.572 178.894 86.748C178.734 86.916 178.526 87 178.27 87ZM181.077 85.764L183.501 83.232C184.021 82.688 184.401 82.276 184.641 81.996C184.881 81.708 185.053 81.46 185.157 81.252C185.261 81.036 185.313 80.816 185.313 80.592C185.313 80.224 185.197 79.932 184.965 79.716C184.733 79.492 184.429 79.38 184.053 79.38C183.661 79.38 183.325 79.492 183.045 79.716C182.773 79.932 182.573 80.252 182.445 80.676L181.017 80.232C181.113 79.768 181.305 79.364 181.593 79.02C181.889 78.668 182.253 78.396 182.685 78.204C183.117 78.012 183.573 77.916 184.053 77.916C184.621 77.916 185.125 78.024 185.565 78.24C186.005 78.448 186.345 78.744 186.585 79.128C186.833 79.504 186.957 79.936 186.957 80.424C186.957 80.904 186.825 81.372 186.561 81.828C186.305 82.276 185.885 82.804 185.301 83.412L183.201 85.62H187.077V87H181.077V85.764ZM189.762 79.452H188.034V78.06H191.394V87H189.762V79.452Z" fill="white"/>
<defs>
<filter id="filter0_d_2_3612" x="113" y="56" width="112" height="68" filterUnits="userSpaceOnUse" color-interpolation-filters="sRGB">
<feFlood flood-opacity="0" result="BackgroundImageFix"/>
<feColorMatrix in="SourceAlpha" type="matrix" values="0 0 0 0 0 0 0 0 0 0 0 0 0 0 0 0 0 0 127 0" result="hardAlpha"/>
<feOffset dy="8"/>
<feGaussianBlur stdDeviation="12"/>
<feColorMatrix type="matrix" values="0 0 0 0 0.556863 0 0 0 0 0.898039 0 0 0 0 0.796078 0 0 0 0.4 0"/>
<feBlend mode="normal" in2="BackgroundImageFix" result="effect1_dropShadow_2_3612"/>
<feBlend mode="normal" in="SourceGraphic" in2="effect1_dropShadow_2_3612" result="shape"/>
</filter>
</defs>
</svg>
