<svg width="82" height="34" viewBox="0 0 82 34" fill="none" xmlns="http://www.w3.org/2000/svg">
<path opacity="0.4" fill-rule="evenodd" clip-rule="evenodd" d="M81 33C81 33 72.9873 27 70 27C67.0127 27 63.9118 29.9405 61 27.0049C58.0882 24.0693 57.4871 20.9888 55 23C52.5129 25.0112 50.1319 25.0112 49 23C47.8681 20.9888 48.9702 20 45 20C41.0298 20 41.3828 14.3457 40 11C38.6172 7.65431 36.5791 4.17701 33 7C29.4209 9.82299 26.983 7.96154 26 6C25.017 4.03846 24.1979 3 22 3C19.8021 3 19.8224 5 18 5C16.1776 5 15.6005 7 13 7C10.3995 7 8.92548 2.00251 7 2.00251C5.07452 2.00251 1 1 1 1V33H81Z" fill="url(#paint0_linear_347_3113)"/>
<path d="M81 33C81 33 72.9873 27 70 27C67.0127 27 63.9118 29.9405 61 27.0049C58.0882 24.0693 57.4871 20.9888 55 23C52.5129 25.0112 50.1319 25.0112 49 23C47.8681 20.9888 48.9702 20 45 20C41.0298 20 41.3828 14.3457 40 11C38.6172 7.65431 36.5791 4.17701 33 7C29.4209 9.82299 26.983 7.96154 26 6C25.017 4.03846 24.1979 3 22 3C19.8021 3 19.8224 5 18 5C16.1776 5 15.6005 7 13 7C10.3995 7 8.92548 2.00251 7 2.00251C5.07452 2.00251 1 1 1 1" stroke="#1DCC98" stroke-width="2" stroke-linecap="round" stroke-linejoin="round"/>
<defs>
<linearGradient id="paint0_linear_347_3113" x1="80.8297" y1="1" x2="80.8297" y2="32.8638" gradientUnits="userSpaceOnUse">
<stop stop-color="#1DCC98"/>
<stop offset="1" stop-color="#8EE5CB" stop-opacity="0.01"/>
</linearGradient>
</defs>
</svg>
