<svg width="48" height="48" viewBox="0 0 48 48" fill="none" xmlns="http://www.w3.org/2000/svg">
<rect width="48" height="48" rx="24" fill="#F61C7A"/>
<mask id="mask0_2_3432" style="mask-type:luminance" maskUnits="userSpaceOnUse" x="0" y="0" width="48" height="48">
<rect width="48" height="48" rx="24" fill="white"/>
</mask>
<g mask="url(#mask0_2_3432)">
<path fill-rule="evenodd" clip-rule="evenodd" d="M21.2318 22.3598C21.5814 21.9403 22.1953 21.8837 22.6141 22.2106L22.7071 22.2929L24.943 24.528L28.825 20H27C26.4872 20 26.0645 19.614 26.0068 19.1166L26 19C26 18.4872 26.3861 18.0645 26.8834 18.0067L27 18H31L31.0344 18.0006C31.0601 18.0014 31.0859 18.0033 31.1115 18.0061L31 18C31.0538 18 31.1066 18.0042 31.158 18.0124C31.1778 18.0156 31.1978 18.0193 31.2176 18.0238L31.2293 18.0264L31.277 18.0389C31.297 18.0446 31.3169 18.051 31.3367 18.0581C31.4489 18.0981 31.5522 18.158 31.642 18.2333C31.645 18.2358 31.6479 18.2383 31.6508 18.2407L31.6653 18.2534C31.6893 18.2748 31.7122 18.2973 31.734 18.3208L31.6508 18.2407C31.6868 18.2716 31.72 18.3044 31.7505 18.3389C31.7706 18.3618 31.7899 18.3859 31.8081 18.4108C31.8141 18.4187 31.8198 18.4267 31.8253 18.4349C31.841 18.4579 31.8558 18.4815 31.8696 18.5058C31.8764 18.5176 31.8829 18.5296 31.8892 18.5418C31.8993 18.5614 31.9087 18.5814 31.9176 18.6017C31.9243 18.6173 31.9305 18.6328 31.9364 18.6484C31.9459 18.6735 31.9543 18.6991 31.9618 18.7251C31.9643 18.7347 31.9669 18.7441 31.9693 18.7535C31.9801 18.7957 31.9882 18.8391 31.9933 18.8834L32 19V23C32 23.5523 31.5523 24 31 24C30.4872 24 30.0645 23.614 30.0068 23.1166L30 23L30 21.702L25.7593 26.6508C25.4073 27.0615 24.7998 27.1132 24.385 26.7887L24.2929 26.7071L22.067 24.482L17.7682 29.6402C17.4419 30.0318 16.8795 30.1108 16.4612 29.8425L16.3598 29.7682C15.9682 29.4419 15.8892 28.8795 16.1575 28.4612L16.2318 28.3598L21.2318 22.3598Z" fill="white"/>
</g>
</svg>
